<?xml version="1.0" standalone="no"?>
<!DOCTYPE svg PUBLIC "-//W3C//DTD SVG 1.1//EN" "http://www.w3.org/Graphics/SVG/1.1/DTD/svg11.dtd" >
<svg xmlns="http://www.w3.org/2000/svg">
<metadata>
Created by FontForge 20120731 at Fri Dec  2 11:59:24 2016
 By admin
</metadata>
<defs>
<font id="iconfont" horiz-adv-x="1024" >
  <font-face 
    font-family="iconfont"
    font-weight="500"
    font-stretch="normal"
    units-per-em="1024"
    panose-1="2 0 6 3 0 0 0 0 0 0"
    ascent="896"
    descent="-128"
    x-height="792"
    bbox="0 -212 1300 896.07"
    underline-thickness="0"
    underline-position="0"
    unicode-range="U+0078-E665"
  />
<missing-glyph 
 />
    <glyph glyph-name=".notdef" 
 />
    <glyph glyph-name=".notdef" 
 />
    <glyph glyph-name=".null" horiz-adv-x="0" 
 />
    <glyph glyph-name="nonmarkingreturn" horiz-adv-x="341" 
 />
    <glyph glyph-name="x" unicode="x" horiz-adv-x="1001" 
d="M281 543q-27 -1 -53 -1h-83q-18 0 -36.5 -6t-32.5 -18.5t-23 -32t-9 -45.5v-76h912v41q0 16 -0.5 30t-0.5 18q0 13 -5 29t-17 29.5t-31.5 22.5t-49.5 9h-133v-97h-438v97zM955 310v-52q0 -23 0.5 -52t0.5 -58t-10.5 -47.5t-26 -30t-33 -16t-31.5 -4.5q-14 -1 -29.5 -0.5
t-29.5 0.5h-32l-45 128h-439l-44 -128h-29h-34q-20 0 -45 1q-25 0 -41 9.5t-25.5 23t-13.5 29.5t-4 30v167h911zM163 247q-12 0 -21 -8.5t-9 -21.5t9 -21.5t21 -8.5q13 0 22 8.5t9 21.5t-9 21.5t-22 8.5zM316 123q-8 -26 -14 -48q-5 -19 -10.5 -37t-7.5 -25t-3 -15t1 -14.5
t9.5 -10.5t21.5 -4h37h67h81h80h64h36q23 0 34 12t2 38q-5 13 -9.5 30.5t-9.5 34.5q-5 19 -11 39h-368zM336 498v228q0 11 2.5 23t10 21.5t20.5 15.5t34 6h188q31 0 51.5 -14.5t20.5 -52.5v-227h-327z" />
    <glyph glyph-name="gengduohd" unicode="&#xe600;" 
d="M122 504q-49 0 -84 -34.5t-35 -83.5t35 -84t84 -35t83.5 35t34.5 84t-34.5 83.5t-83.5 34.5zM500 504q-49 0 -84 -34.5t-35 -83.5t35 -84t84 -35t84 35t35 84t-35 83.5t-84 34.5zM902 504q-49 0 -84 -34.5t-35 -83.5t35 -84t84 -35t83.5 35t34.5 84t-34.5 83.5
t-83.5 34.5z" />
    <glyph glyph-name="xin" unicode="&#xe632;" 
d="M663 366l298 253v-609zM65 651h894l-447 -376zM512 238l131 111l285 -340h-832l285 337zM360 366l-298 253v-609z" />
    <glyph glyph-name="tianjia_a" unicode="&#xe663;" 
d="M283 -51v202h-200zM797 239v151h-100v-151h-151v-101h151v-138h100v138h138v101h-138zM647 88h-76q-26 0 -44 18.5t-18 44.5v75q0 27 18 45t44 18h76v76q0 26 18 44.5t44 18.5q7 0 13 -1v392q0 5 -4 8.5t-9 3.5h-589q-5 0 -8.5 -3.5t-3.5 -8.5v-630q0 3 1.5 3t5 -1.5
t5.5 -1.5h188q5 0 9 -4t4 -9v-189q0 -3 1.5 -6.5t1.5 -4.5t-3 -1h331q-5 12 -5 25v88zM168 746q0 6 4 10t10 4h469q6 0 10 -4t4 -10v-14q0 -6 -4 -10t-10 -4h-469q-6 0 -10 4t-4 10v14zM168 647q0 5 4 9.5t10 4.5h469q6 0 10 -4.5t4 -9.5v-15q0 -6 -4 -10t-10 -4h-469
q-6 0 -10 4t-4 10v15zM168 547q0 6 4 10t10 4h469q6 0 10 -4t4 -10v-14q0 -6 -4 -10t-10 -4h-469q-6 0 -10 4t-4 10v14zM452 434q0 -15 -8 -15h-268q-8 0 -8 15v14q0 14 8 14h268q8 0 8 -14v-14z" />
    <glyph glyph-name="gengduosd" unicode="&#xe601;" 
d="M512 653q37 0 63.5 26t26.5 63.5t-26.5 63.5t-63.5 26t-63.5 -26t-26.5 -63.5t26.5 -63.5t63.5 -26zM512 474q-37 0 -63.5 -26.5t-26.5 -63.5t26.5 -63.5t63.5 -26.5t63.5 26.5t26.5 63.5t-26.5 63.5t-63.5 26.5zM512 115q-37 0 -63.5 -26t-26.5 -63.5t26.5 -63.5
t63.5 -26t63.5 26t26.5 63.5t-26.5 63.5t-63.5 26z" />
    <glyph glyph-name="tongxunlu" unicode="&#xe640;" 
d="M954 807h-795q-27 0 -46.5 -19.5t-19.5 -46.5v-45h-66q-9 0 -15.5 -6t-6.5 -16v-176q0 -9 6.5 -15.5t15.5 -6.5h66v-67h-66q-9 0 -15.5 -6t-6.5 -16v-176q0 -9 6.5 -15.5t15.5 -6.5h66v-67h-66q-9 0 -15.5 -6.5t-6.5 -15.5v-176q0 -9 6.5 -15.5t15.5 -6.5h66v-45
q0 -27 19.5 -46.5t46.5 -19.5h795q28 0 47 19.5t19 46.5v884q0 27 -19 46.5t-47 19.5zM954 -76q0 -28 -19.5 -47.5t-46.5 -19.5h-663q-27 0 -46.5 19.5t-19.5 47.5v750q0 28 19.5 47.5t46.5 19.5h663q27 0 46.5 -19.5t19.5 -47.5v-750zM679 161q56 31 89.5 86.5t33.5 121.5
q0 99 -71.5 169t-172.5 70t-172.5 -70t-71.5 -169q0 -66 33.5 -121.5t89.5 -86.5q-60 -23 -107.5 -65.5t-75.5 -99.5h6q0 -11 8 -18.5t19 -7.5t19 7.5t8 18.5h1q39 61 103.5 97t140 36t140 -36t102.5 -97h1q0 -11 8 -18.5t19.5 -7.5t19.5 7.5t8 18.5h6q-28 57 -76 99.5
t-108 65.5zM368 369q0 77 56 131.5t134.5 54.5t134 -54.5t55.5 -131.5t-55.5 -131.5t-134 -54.5t-134.5 54.5t-56 131.5z" />
    <glyph glyph-name="weibiaoti1" unicode="&#xe602;" 
d="M509 -201q-101 0 -193.5 39.5t-159.5 106.5t-106.5 159.5t-39.5 193.5t39.5 193.5t106.5 159t159.5 106.5t193.5 40t193.5 -40t159.5 -106.5t106.5 -159t39.5 -193.5t-39.5 -193.5t-106.5 -159.5t-159.5 -106.5t-193.5 -39.5zM509 770q-96 0 -183.5 -37.5t-150.5 -100.5
t-100.5 -150.5t-37.5 -183.5t37.5 -183.5t100.5 -151t150.5 -100.5t183.5 -37t183.5 37t150.5 100.5t100.5 151t37.5 183.5t-37.5 183.5t-100.5 150.5t-150.5 100.5t-183.5 37.5zM388 27l-19 18l254 255l-256 257l18 19l276 -276z" />
    <glyph glyph-name="shouhuodizhi" unicode="&#xe641;" 
d="M518 102q-10 11 -27.5 29.5t-61.5 74t-78 110t-61.5 128t-27.5 135.5q0 36 8.5 66.5t23.5 52t34 38.5t40.5 27.5t42.5 18.5t40.5 11.5t34.5 5.5t23 3h9q5 0 14.5 -0.5t36 -5t51 -12t54 -24t50.5 -39.5t36 -59.5t15 -82.5q0 -62 -26.5 -134t-64 -130.5t-76 -108t-64 -77
t-26.5 -27.5zM698 609q-13 58 -68 96q-1 0 -3.5 2t-3.5 2q-4 3 -17 9l-15 7.5t-16 4.5q-16 4 -19 5q-19 3 -38 3v0v0q-19 0 -37 -3q-35 -6 -65 -23v-1v0q-10 -6 -22 -15q-1 -1 -3 -2.5t-3 -2.5q-3 -3 -12.5 -13t-10.5 -12t-3 -5t-3 -4q-8 -12 -11 -18q0 -2 -1 -4.5t-1 -3.5
q-6 -14 -8 -21q-3 -16 -3 -31q0 -44 19.5 -101t44 -101t56 -91t44 -63t19.5 -25v0q8 9 20 25t43.5 63t56 91t44 101t19.5 101q0 15 -3 30zM448 592q0 29 20.5 49.5t49.5 20.5t49.5 -20.5t20.5 -49.5t-20.5 -49.5t-49.5 -20.5t-49.5 20.5t-20.5 49.5zM821 312q-1 -2 -2 -6.5
t-3.5 -15.5t-3.5 -20t1 -17.5t8 -10.5q12 -4 35.5 2t40.5 14l18 8v-304l-188 -73q-61 -22 -69 -20q-6 1 -73 27.5t-132 48.5t-75 17t-74.5 -22.5t-123 -32.5l-58.5 -15v304q108 26 116 46q5 11 5 23t-6.5 23t-23 12t-45.5 -11q-77 -35 -116 -70v-373q0 -2 1 -4t4.5 -8.5
t7 -11t10 -11.5t13 -9.5t15.5 -4.5t19 2q20 7 84.5 30.5t118 43l53.5 19.5q249 -89 280 -93q28 -3 177 46.5t150 70.5q2 80 2 241t-2 179q-2 9 -34 5.5t-67.5 -12t-62.5 -17.5z" />
    <glyph glyph-name="horn" unicode="&#xe61e;" 
d="M511 826l-227 -228h-161q-31 0 -53.5 -22t-22.5 -54v-303q0 -31 22.5 -53t53.5 -22h161l227 -228q32 0 54 22.5t22 53.5v758q0 31 -22 53.5t-54 22.5zM511 -5l-199 219h-189v303h189l199 219v-741v0zM960 338q6 0 10 9.5t4 23.5t-4 23.5t-10 9.5h-94q-6 0 -10 -9.5
t-4 -23.5t4 -23.5t10 -9.5h94zM971 767q4 3 3 13.5t-8 22.5t-15.5 18.5t-13.5 3.5l-82 -48q-5 -2 -3.5 -12.5t8.5 -22.5t15.5 -18.5t13.5 -3.5zM971 -25q4 -3 3 -13.5t-8 -22.5t-15.5 -18.5t-13.5 -3.5l-82 47q-5 3 -3.5 13.5t8.5 22.5t15.5 18.5t13.5 3.5zM640 201
q-12 32 14 42q64 29 73 114q5 45 -15 83.5t-57 55.5q-13 8 -16.5 20t3.5 25q8 12 20.5 16t24.5 -4q57 -33 86.5 -86.5t22.5 -116.5q-6 -53 -36 -97.5t-78 -65.5q-11 -6 -23.5 -2t-18.5 16v0z" />
    <glyph glyph-name="queren" unicode="&#xe61f;" 
d="M280 -54q-16 0 -27 9.5t-11 23.5v590q0 14 11 24t27 10h110v74h-143q-22 0 -50 -21t-28 -47v-670q0 -32 26.5 -50t51.5 -18h204q-8 8 -27 34t-33 41h-111v0zM812 609q0 24 -28 46t-49 22h-136v-74h92q16 0 32.5 -8.5t16.5 -15.5v-255q12 12 39.5 30t32.5 22v233v0z
M740 -7v-14q0 -14 -11.5 -23.5t-27.5 -9.5h-5q-5 -7 -19 -37t-20 -38h78q11 0 22.5 3t25 9.5t21.5 21t8 34.5v96q-6 -4 -33 -18.5t-39 -23.5v0zM486 108l71 -128q6 11 16 30t41.5 70t63 93.5t77 84t87.5 57.5q-11 -146 12 -168q-45 -19 -134 -102t-153 -191
q-21 21 -52.5 53.5t-44 43.5t-42 30.5t-73.5 42.5q34 21 66.5 42t48.5 31.5l16 10.5v0zM663 579h-87v106q0 25 -22.5 43.5t-49.5 18.5h-17q-27 0 -49.5 -18.5t-22.5 -43.5v-106h-92q-8 0 -13.5 -5.5t-5.5 -13.5v-65h378v65q0 8 -5.5 13.5t-13.5 5.5v0zM493 602q-16 0 -27 11
t-11 27t11 27t27 11t27 -11t11 -27t-11 -27t-27 -11v0zM493 602z" />
    <glyph glyph-name="gengduox" unicode="&#xe603;" 
d="M61 811h927v-144h-927v144zM61 471h927v-145h-927v145zM61 130h927v-144h-927v144z" />
    <glyph glyph-name="tianjia_b" unicode="&#xe664;" 
d="M675 413h-127v127q0 15 -10.5 25.5t-25.5 10.5t-26 -10.5t-11 -25.5v-127h-127q-15 0 -25.5 -11t-10.5 -26t10.5 -25.5t25.5 -10.5h127v-127q0 -15 11 -26t26 -11t25.5 11t10.5 26v127h127q15 0 25.5 10.5t10.5 25.5t-10.5 26t-25.5 11v0zM511 831q-92 0 -176 -36
t-145 -97t-97 -145t-36 -176.5t36 -176.5t97 -144.5t145 -96.5t176.5 -36t176.5 36t144.5 96.5t96.5 144.5t36 176.5t-36 176.5t-96.5 145t-144.5 97t-177 36v0zM511 -21q-107 0 -198.5 53.5t-145 145t-53.5 199t53.5 199t145 145t199 53.5t199 -53.5t145 -145t53.5 -199
t-53.5 -199t-145 -145t-199.5 -53.5v0zM511 -21z" />
    <glyph glyph-name="yonghuming" unicode="&#xe633;" 
d="M511 -212h1h-1v0zM511.5 761q-87.5 0 -149 -61.5t-61.5 -149.5q0 -52 23.5 -97t64.5 -74q-83 -36 -134.5 -112.5t-51.5 -170.5h1q0 -13 9.5 -21.5t22.5 -8.5t22.5 8.5t10.5 21.5v0v2v0v0.5v0.5v0q0 94 62 163t153 79q14 -1 27 -1q88 0 149.5 61.5t61.5 149t-61.5 149
t-149 61.5zM511.5 405q-60.5 0 -103.5 42.5t-43 103t43 103.5t103.5 43t103 -43t42.5 -103.5t-42.5 -103t-103 -42.5zM820 99v0v0q-2 126 -90 215v0q-10 9 -23 9t-22.5 -9t-9.5 -22q0 -14 10 -24q69 -71 69 -169v-1.5v-1.5v0q1 -13 10.5 -21.5t22.5 -8.5t22.5 8.5t10.5 21.5
v0v2v1z" />
    <glyph glyph-name="icon3" unicode="&#xe620;" 
d="M865 596l-1 -261q0 -6 -1.5 -15.5t-10.5 -34t-23.5 -43t-46.5 -33.5t-74 -15h-213l-95 -98l156 -2l215 -221l7 227q0 2 9 0.5t24 1t32.5 6t36 13.5t33 24t23.5 38t9 54v220q-1 2 0.5 10t-3 24.5t-11 34t-24 37t-42.5 33.5zM680 230q58 0 99 41t41 99v227q0 58 -41 99
t-99 41h-462q-58 0 -99 -41t-41 -99v-227q0 -58 41 -99t99 -41h12l1 -207l232 207h217z" />
    <glyph glyph-name="address" unicode="&#xe604;" 
d="M678 429q0 69 -48.5 117.5t-117.5 48.5t-117.5 -48.5t-48.5 -117.5t48.5 -117.5t117.5 -48.5t117.5 48.5t48.5 117.5zM383 428.5q0 53.5 37.5 91.5t91 38t91.5 -38t38 -91.5t-38 -91t-91.5 -37.5t-91 37.5t-37.5 91zM807 429q0 122 -86.5 208.5t-208.5 86.5t-208.5 -86.5
t-86.5 -208.5q0 -46 30.5 -115.5t73.5 -137.5t86.5 -128t74 -98t30.5 -37q12 14 32 39t70.5 94.5t89.5 131.5t71 133.5t32 117.5zM512 687q107 0 182.5 -75.5t75.5 -182.5q0 -40 -26.5 -102t-64.5 -122.5t-76 -115t-64.5 -88l-26.5 -33.5q-11 13 -28.5 35.5t-62 85
t-78.5 117.5t-61.5 119t-27.5 104q0 107 75.5 182.5t182.5 75.5zM642 31q-11 -16 -23 -32q60 -7 96 -20t36 -29q0 -23 -70 -39.5t-169 -16.5t-169.5 16.5t-70.5 39.5q0 16 36.5 29t96.5 20l-24 32q-66 -12 -106 -34t-40 -47q0 -39 81 -66t195.5 -27t195.5 27t81 66
q0 25 -39.5 47t-106.5 34z" />
    <glyph glyph-name="gengduokx" unicode="&#xe605;" 
d="M481 414h-365v365h365v-365zM176 474h245v245h-245v-245zM481 -11h-365v365h365v-365zM176 49h245v245h-245v-245zM547 740h361v-60h-361v60zM547 513h361v-61h-361v61zM547 315h361v-60h-361v60zM547 88h361v-60h-361v60z" />
    <glyph glyph-name="svg37" unicode="&#xe621;" 
d="M127 670h595q28 0 48 -20t20 -48v-380q0 -28 -20 -47.5t-48 -19.5h-308l-173 -156v156h-114q-28 0 -48 19.5t-20 47.5v380q0 28 20 48t48 20v0zM818 189v332h85q28 0 48 -19t20 -47v-333q0 -27 -19.5 -43.5t-48.5 -16.5h-114v-155l-170 155h-131q-29 0 -48.5 16.5
t-19.5 43.5q304 2 332 2q22 0 44 22t22 43v0zM818 189z" />
    <glyph glyph-name="bianji" unicode="&#xe606;" 
d="M1009 412l-59 -57l-159 159l58 57q13 13 31 14.5t30 -9.5l105 -103q11 -11 9 -29.5t-15 -31.5v0v0v0zM763 487l161 -157l-383 -378q-6 -6 -14 -8q-1 0 -3 -1l-200 -62q-10 -3 -15 3q-6 6 -3 15l64 196q0 2 1 3q2 12 9 15l73 67h-243q-7 0 -13 7t-6 14t6 14t13 7h281
l272 265v0v0zM491 -35l-98 97l-27 -82l42 -42l83 27v0v0zM758 425q-4 4 -10.5 4t-10.5 -4l-300 -294q-5 -4 -5 -10.5t5 -10.5q4 -3 10 -3t10 3l299 295q11 8 2 20v0v0v0zM90 -149q-21 0 -21 14v801q0 5 1 8.5t4.5 5t4.5 1.5h7.5h8.5h69v-27q0 -7 7.5 -13t15.5 -6t15.5 6
t7.5 13v27h104v-27q0 -7 7 -13t16 -6q8 0 15.5 6t7.5 13v27h95v-27q0 -7 7 -13t16 -6q8 0 15 6t7 13v27h95v-27q0 -7 7.5 -13t15.5 -6t15.5 6t7.5 13v27h80q16 0 16 -15v-132l59 57v75q0 31 -21.5 51.5t-53.5 20.5h-81v49q0 8 -7 13.5t-16 5.5q-8 0 -15.5 -5.5t-7.5 -13.5
v-49h-95v49q0 8 -7 13.5t-16 5.5q-8 0 -15.5 -5.5t-7.5 -13.5v-49h-95v49q0 8 -7 13.5t-15 5.5t-15.5 -5.5t-7.5 -13.5v-49h-104v49q0 8 -7 13.5t-16 5.5q-8 0 -15.5 -5.5t-7.5 -13.5v-49h-68q-42 0 -63.5 -20t-21.5 -52v-800q0 -31 24 -51.5t57 -20.5h629q32 0 53 20.5
t21 51.5v276l-58 -57v-220q0 -14 -16 -14h-630zM588 521h-379q-7 0 -12.5 -7t-5.5 -14q0 -8 5.5 -15t12.5 -7h379q7 0 12.5 7t5.5 14.5t-5.5 14.5t-12.5 7v0v0v0zM588 375h-379q-7 0 -12.5 -7t-5.5 -14q0 -8 5 -15t13 -7h379q7 0 12.5 7.5t5.5 14.5t-5.5 14t-12.5 7v0v0v0z
M588 375z" />
    <glyph glyph-name="weifenxiaopcjiemianzhuanhuan" unicode="&#xe63c;" 
d="M794 767v-51q12 -26 12 -38q0 -30 -21 -53.5t-49 -23.5q-29 0 -49.5 21.5t-20.5 55.5q0 12 12 38v51h-102v-51q13 -26 13 -38q0 -30 -21 -53.5t-50 -23.5t-49.5 21.5t-20.5 55.5q0 12 13 38v51h-109v-51q13 -26 13 -38q0 -30 -21 -53.5t-50 -23.5t-49.5 21.5t-20.5 55.5
q0 12 13 38v51h-77v-742l230 -237h468v979h-64zM806 -161h-320q-18 0 -31 12.5t-19.5 32t-9.5 43.5t-2.5 48t1.5 43.5t2.5 32l1.5 12.5q-4 -1 -11.5 -2.5t-29 -4t-41 -3.5t-43.5 1t-42 8t-30.5 19.5t-13.5 32.5v429h595v-704h-7zM755 326h-486v-52h486v52zM755 486h-486v-52
h486v52zM755 166h-486v-52h486v52zM736 633q14 0 26 12t12 26v103q-12 38 -38 38q-14 0 -26 -12t-12 -26v-103q0 -14 12 -26t26 -12zM288 633q14 0 26 12t12 26v103q0 15 -10 26.5t-28 11.5q-14 0 -23 -11.5t-9 -26.5v-103q0 -15 9 -26.5t23 -11.5zM512 633q14 0 26 12
t12 26v103q0 14 -12 26t-26 12t-26 -12t-12 -26v-103q0 -14 12 -26t26 -12z" />
    <glyph glyph-name="dizhi" unicode="&#xe607;" 
d="M512 747q-122 0 -208.5 -86.5t-86.5 -208.5q0 -46 30.5 -124t74 -158t86.5 -152t73.5 -118.5l30.5 -46.5q12 18 32 48.5t70.5 114.5t89.5 156.5t71 153t32 126.5q0 122 -86.5 208.5t-208.5 86.5zM512 390q-37 0 -63.5 26t-26.5 63.5t26.5 63.5t63.5 26t63.5 -26
t26.5 -63.5t-26.5 -63.5t-63.5 -26z" />
    <glyph glyph-name="shanchu" unicode="&#xe622;" 
d="M818 596h-169v59q0 19 -13.5 32.5t-32.5 13.5h-182q-19 0 -32.5 -13.5t-13.5 -32.5v-59h-169q-19 0 -32.5 -13.5t-13.5 -32.5v-72q0 -19 13.5 -32.5t32.5 -13.5h28v-426q0 -44 31.5 -75.5t76.5 -31.5h340q45 0 76.5 31.5t31.5 75.5v426h28q19 0 32.5 13.5t13.5 32.5v72
q0 19 -13.5 32.5t-32.5 13.5zM427 650h170v-54h-170v54zM738 6q0 -23 -16.5 -39.5t-39.5 -16.5h-340q-23 0 -39.5 16.5t-16.5 39.5v426h452v-426zM813 484h-602v61h203q4 -1 7 -1h182q3 0 7 1h203v-61zM513 29q11 0 18.5 7.5t7.5 17.5v289q0 10 -7.5 17.5t-18.5 7.5
t-18.5 -7.5t-7.5 -17.5v-289q0 -10 7.5 -17.5t18.5 -7.5zM645.5 29q10.5 0 18 7.5t7.5 17.5v289q0 10 -7.5 17.5t-18 7.5t-18 -7.5t-7.5 -17.5v-289q0 -10 7.5 -17.5t18 -7.5zM380.5 29q10.5 0 18 7.5t7.5 17.5v289q0 10 -7.5 17.5t-18 7.5t-18 -7.5t-7.5 -17.5v-289
q0 -10 7.5 -17.5t18 -7.5z" />
    <glyph glyph-name="gerenzhongxin" unicode="&#xe63d;" 
d="M795 469q0 115 -80.5 196.5t-194 81.5t-193.5 -81.5t-80 -196.5q0 -77 38 -141t101 -100q-120 -40 -197 -142.5t-81 -233.5h57q5 139 103 237t235 100l7 2q2 0 5.5 -0.5t5.5 -0.5q113 0 193.5 81.5t80.5 197.5v0zM521 257q-86 0 -147 62t-61 149.5t61 150t147 62.5
t147 -62.5t61 -150t-61 -149.5t-147 -62v0zM763 147q-9 9 -21 9t-20.5 -8.5t-8.5 -20.5q0 -14 13 -23v0l-1 -1q58 -45 92.5 -110.5t40.5 -141.5h56q-5 89 -45 165.5t-106 130.5v0z" />
    <glyph glyph-name="icon09" unicode="&#xe63e;" 
d="M832 152q-13 12 -31.5 12t-30.5 -12q-13 -13 -13 -31.5t13 -30.5q51 -52 78.5 -118.5t27.5 -139.5q0 -18 13 -31t31 -13t31 13t13 31q0 90 -34 172.5t-98 147.5zM512 812q-127 0 -217.5 -90.5t-90.5 -217.5q0 -77 35.5 -144.5t98.5 -109.5q-82 -35 -146 -98
q-64 -65 -98 -147.5t-34 -172.5q0 -18 13 -31t31 -13t31 13t13 31q0 73 27.5 139.5t78.5 118.5q50 49 113.5 76.5t132.5 29.5h12q127 0 217.5 90.5t90.5 217.5t-90.5 217.5t-217.5 90.5zM512 724q91 0 155.5 -64.5t64.5 -155.5q0 -89 -63 -154t-150 -67q-4 1 -7 1h-10
q-89 4 -149.5 67.5t-60.5 152.5q0 91 64.5 155.5t155.5 64.5z" />
    <glyph glyph-name="mima" unicode="&#xe623;" 
d="M510.5 -212q-103.5 0 -191.5 51.5t-139.5 139.5t-51.5 192v191h765v-191q0 -104 -51 -192t-139.5 -139.5t-192 -51.5zM192 298v-127q0 -87 42.5 -160.5t116 -116t160 -42.5t160 42.5t116 116t42.5 160.5v127h-637zM510.5 -53q-39.5 0 -67.5 28t-28 67v65q0 39 28 67
t67.5 28t67.5 -28t28 -67v-65q0 -39 -28 -67t-67.5 -28zM510.5 139q-13.5 0 -22.5 -9.5t-9 -22.5v-64q0 -13 9 -22.5t22.5 -9.5t22.5 9.5t9 22.5v64q0 13 -9 22.5t-22.5 9.5zM766 426h-64v137q0 75 -56 128t-135.5 53t-135.5 -53t-56 -128v-137h-63v137q0 101 74.5 173
t180 72t180.5 -72t75 -173v-137z" />
    <glyph glyph-name="lianxiwomen" unicode="&#xe624;" 
d="M512 896q-138 0 -256 -69t-187 -187t-69 -256t69 -256t187 -187t256 -69t256 69t187 187t69 256t-69 256t-187 187t-256 69zM512 -64q-187 0 -317.5 130.5t-130.5 317.5t130.5 317.5t317.5 130.5t317.5 -130.5t130.5 -317.5t-130.5 -317.5t-317.5 -130.5zM691 346
q-38 0 -70 -17.5t-51 -46.5q-63 9 -107 54t-53 112q29 19 46.5 50.5t17.5 64.5q0 58 -42 99.5t-99.5 41.5t-99 -41.5t-41.5 -99.5q0 -95 46.5 -188t119 -160.5t161.5 -109t172 -41.5v0q58 0 99.5 41.5t41.5 99t-41.5 99.5t-99.5 42zM691 115v0q-73 0 -153.5 38t-145 99
t-107 144.5t-42.5 166.5q0 39 29 67.5t67.5 28.5t67 -28.5t28.5 -67.5q0 -24 -13.5 -46.5t-37.5 -36.5l-19 -6v-13q0 -90 64.5 -154.5t152.5 -69.5h13l7 13q9 23 31.5 37t51.5 14q38 0 67 -29t29 -67q4 -38 -23 -64t-67 -26z" />
    <glyph glyph-name="shengji" unicode="&#xe625;" 
d="M962 300q0 91 -36 174.5t-96 143.5t-143.5 96t-174.5 36t-174.5 -36t-143.5 -96t-96 -143.5t-36 -174.5t36 -174.5t96 -143.5t143.5 -96t174.5 -36t174.5 36t143.5 96t96 143.5t36 174.5zM133 300q0 103 50.5 190.5t138 138t190.5 50.5t190.5 -50.5t138 -138t50.5 -190.5
t-50.5 -190.5t-138 -138t-190.5 -50.5t-190.5 50.5t-138 138t-50.5 190.5zM456 103h112v-28h-112v28zM456 159h112v-28h-112v28zM456 216h112v-28h-112v28zM624 412l-112 113l-112 -113h56v-112h112v112h56zM456 272h112v-28h-112v28z" />
    <glyph glyph-name="dianhua" unicode="&#xe608;" 
d="M826 -212q-100 0 -256 83q-135 77 -276 218q-142 152 -211 281q-25 45 -64 135q-19 57 -19 109q0 32 19 51q6 11 19 26.5t26 24.5q15 15 45.5 41.5t44.5 35.5l19 13q10 10 32 0l6 -7q2 -2 7.5 -6t10.5 -9t8 -10q29 -29 57 -77q32 -51 71 -128v-13q0 -1 -0.5 -2.5
t-1.5 -3.5t-2 -3.5t-3.5 -5t-4.5 -6t-6 -8t-8 -9.5q-25 -26 -25 -32q-9 -18 0 -45v-7q4 -21 7 -33t12.5 -31.5t24.5 -37.5q29 -48 77 -96q17 -17 47.5 -44t42.5 -39q63 -45 96 -45q9 0 19 1.5t17 3.5t17.5 6.5t14.5 6.5l15 7.5l13 6.5q5 2 22.5 10.5t28.5 8.5h13
q29 -9 134 -77q71 -51 109 -89v-26q-4 -26 -35.5 -68.5t-54.5 -59.5q-28 -29 -57 -38q-39 -13 -51 -13zM186 754v0q-16 -10 -45.5 -36.5t-38.5 -39.5q-30 -21 -38 -45q-6 -13 -13 -19v0q0 -42 19 -90q16 -54 58 -128q77 -134 205 -262q121 -131 262 -212q135 -76 231 -76
q19 0 32 6q6 3 19 12.5t19 13.5q18 13 39 40.5t31 48.5q-22 23 -89 71q-23 15 -49.5 31t-40 24.5t-19.5 14.5q-13 0 -26 -13q-3 -1 -30 -14t-47.5 -18.5t-43.5 -5.5q-51 0 -128 57q-64 52 -96 90q-45 45 -83 96q-18 21 -29.5 44t-14.5 37.5t-8 40.5l-6 6q-6 17 -6 39.5
t12 43.5q3 3 6.5 8t9 14t10.5 17q13 12 19 12q-32 64 -57 109q-39 51 -58 71q-6 6 -6 12z" />
    <glyph glyph-name="weibiaoti104" unicode="&#xe609;" horiz-adv-x="1301" 
d="M650 40l81 81l-113 114l-82 -81v-41h74v-73h40v0zM967 568q-12 12 -24 0l-252 -260q-12 -12 0 -24t24 0l252 252q11 21 0 32v0zM1024 137v-138q0 -81 -65 -146t-146 -65h-602q-81 0 -146 65q-65 52 -65 146v602q0 81 65 146t146 65h602q32 0 81 -16q4 0 6 -2t4.5 -6.5
t5.5 -8.5q0 -16 -8 -24l-32 -32q-9 -9 -25 -9q-4 0 -16 4.5t-16 4.5h-602q-48 0 -80.5 -32.5t-32.5 -81.5v-610q0 -48 32.5 -80.5t80.5 -32.5h602q48 0 80.5 32.5t32.5 80.5v90q0 6 1.5 8t7.5 8l48 49q8 8 25 8q5 0 10.5 -9t5.5 -16v0zM959 674l211 -211l-487 -488h-220v211
zM1276 576l-65 -65l-211 212l65 65q24 24 48.5 24t48.5 -24l114 -114q24 -25 24 -49t-24 -49v0zM1276 576z" />
    <glyph glyph-name="chuku" unicode="&#xe642;" horiz-adv-x="1119" 
d="M471 62h-10l-7 7q-8 8 -7 22q0 19 2.5 40t11.5 59t23 71.5t41 71.5t62 65.5t89.5 47t119.5 21.5v97q-1 17 8 28q16 18 45 6l4 -2l179 -195q19 -22 19 -46t-22 -47l-180 -207q-14 -15 -30 -15q-18 0 -27 17q-5 10 -5 28v118q-20 0 -42 -2t-57.5 -11.5t-66.5 -26.5
t-65.5 -51t-59.5 -79q-10 -17 -25 -17v0v0zM779 293q11 0 33 -2l19 -2v-141l165 190q11 11 11 17q0 7 -8 17l-159 173v-121h-22q-65 0 -118 -17.5t-86.5 -43.5t-58 -63t-36.5 -69t-20 -68q34 41 75.5 69t81 40t68.5 16.5t55 4.5v0v0zM221 28q-26 0 -44 18t-18 44v587
q0 26 18 44t44 18h587q26 0 44 -18t18 -44v-20l93 -82v133q0 51 -36 87.5t-88 36.5h-649q-51 0 -87.5 -36.5t-36.5 -87.5v-649q0 -51 36.5 -87.5t87.5 -36.5h186v-1h92v1h291l-93 93h-445v0zM290 551h311q15 0 25 10t10 24.5t-10 25t-25 10.5h-311q-14 0 -24 -10.5t-10 -25
t10 -24.5t24 -10zM290 397h210q15 0 25 10t10 24.5t-10 25t-25 10.5h-210q-14 0 -24 -10.5t-10 -25t10 -24.5t24 -10zM290 242h74q14 0 24.5 10.5t10.5 25t-10.5 24.5t-24.5 10h-74q-14 0 -24 -10t-10 -24.5t10 -25t24 -10.5z" />
    <glyph glyph-name="ruku" unicode="&#xe643;" horiz-adv-x="1087" 
d="M1036 93q-1 18 -3.5 39.5t-11.5 59t-23 71t-40.5 71.5t-62 65.5t-89.5 47t-119 21.5v97q1 17 -9 28q-16 18 -44 6l-4 -2l-179 -195q-19 -22 -19 -46t22 -47l180 -206q14 -15 30 -15q18 0 26 16q6 11 6 29v117q20 0 42 -2t57 -11.5t66.5 -26.5t66 -51t59.5 -79
q9 -17 25 -17h9l8 8q7 8 7 22zM703 294q-10 0 -32 -2l-19 -2v-140l-165 190q-11 10 -11 16q0 7 8 17l159 172l-1 -120h23q65 0 118 -17.5t86 -43.5t58 -62.5t37 -69t19 -68.5q-33 41 -74.5 69t-81.5 40t-68.5 16.5t-55.5 4.5zM557 586.5q0 14.5 -10.5 25t-24.5 10.5h-246
q-15 0 -25 -10.5t-10 -25t10 -24.5t25 -10h246q14 0 24.5 10t10.5 24.5zM368 313h-92q-15 0 -25 -10t-10 -24.5t10 -24.5t25 -10h92q15 0 25 10t10 24.5t-10 24.5t-25 10zM432 432.5q0 14.5 -10.5 24.5t-24.5 10h-121q-15 0 -25 -10t-10 -24.5t10 -24.5t25 -10h121
q14 0 24.5 10t10.5 24.5zM857 150h-1h-1v-59q0 -25 -18 -43.5t-44 -18.5h-587q-25 0 -43 18.5t-18 43.5v587v3q1 25 19 42t42 17h587q25 0 43 -17t19 -42v-3v-164q52 -35 93 -74v136v133q0 17 -5 34q-1 4 -3 8q-13 36 -44.5 59t-71.5 23h-649q-42 0 -75.5 -26.5t-43.5 -66.5
q-2 -6 -3 -12v-6q-1 -7 -1 -13v-649q0 -51 36 -87t87 -36h186v-2h92v2h93v-2h93v2h185q47 0 82 30.5t41 76.5q-1 2 -3 7q-31 51 -87 99z" />
    <glyph glyph-name="shouye" unicode="&#xe63f;" 
d="M937 311v0l-152 149v116q0 16 -11.5 28t-28.5 12t-29 -12t-12 -28v-37l-160 157v0q-10 11 -25 12v0h-2l-1 1h-2v0q-17 0 -29 -13l-392 -384q-13 -11 -13 -28t12 -28.5t29 -11.5t29 11v0l364 357l1 -1v0l365 -356v0q12 -11 27 -11q17 0 29 11.5t12 28.5q0 15 -11 27z
M162 217v-279q0 -16 12 -27.5t28 -11.5h380v318h163v-318h81q17 0 29 11.5t12 27.5v279l-353 346zM446 58h-162v159h162v-159z" />
    <glyph glyph-name="dizhi1" unicode="&#xe60a;" 
d="M329 429q39 -58 160 -232l1 -1q12 -16 31 -16q21 0 31 17q158 228 164 235l1 1q34 56 34 120q0 95 -67.5 162t-162.5 67t-162 -67t-67 -162q0 -67 37 -124v0zM520.5 724q70.5 0 120.5 -50t50 -121q0 -46 -24 -89q-3 -4 -26 -37.5t-61 -88t-59 -84.5q-14 21 -52 75
t-63.5 90.5t-29.5 42.5q-28 42 -28 90q1 71 51.5 121.5t121 50.5zM520 425q52 0 89.5 37.5t37.5 89.5t-37.5 89.5t-89.5 37.5t-89.5 -37.5t-37.5 -89.5t37 -89.5t90 -37.5zM520.5 622q28.5 0 48.5 -20.5t20 -48.5q0 -29 -20 -49t-48.5 -20t-48.5 20.5t-20 48.5t20 48.5
t48.5 20.5zM1007 127l-143 275h-118l-46 -59h128l130 -249l3 -2q10 -14 2 -32q-9 -16 -28 -16h-845q-19 0 -28 16q-7 18 4 33l1 1l128 250h145l-48 59h-133l-143 -276q-14 -21 -15.5 -45.5t9.5 -45.5q26 -49 81 -49h845q25 0 46.5 13t33.5 36q22 49 -9 91z" />
    <glyph glyph-name="guanyuwomen" unicode="&#xe626;" 
d="M936 682h-263q-77 0 -131 -52q-16 -15 -30 -38q-14 23 -30 38q-54 52 -131 52h-263q-10 0 -17.5 -7t-7.5 -17v-660q0 -10 7.5 -17t17.5 -7h236q16 0 30 -2q15 -3 29 -8l120 -44v0h1q4 -2 8 -2t8 2h0.5h0.5l115 42q17 6 34 9t35 3h231q10 0 17.5 7t7.5 17v660
q0 10 -7.5 17t-17.5 7zM363.5 18.5q-19.5 3.5 -39.5 3.5h-211v612h238q56 0 96 -38t40 -92v-527l-86 31q-18 7 -37.5 10.5zM911 22h-206q-23 0 -44 -4q-23 -4 -43 -11l-81 -30v527q0 54 40 92t96 38h238v-612z" />
    <glyph glyph-name="fuxuankuang" unicode="&#xe65e;" 
d="M818 640q13 0 23 -10t10 -24v-612q0 -14 -10 -23.5t-23 -9.5h-612q-14 0 -24 9.5t-10 23.5v612q0 14 10 24t24 10h612zM818 683h-612q-32 0 -54.5 -22.5t-22.5 -54.5v-612q0 -31 22.5 -53.5t54.5 -22.5h612q31 0 53.5 22.5t22.5 53.5v612q0 32 -22.5 54.5t-53.5 22.5v0z
" />
    <glyph glyph-name="wuliukuaidi" unicode="&#xe627;" 
d="M354 -5.5q0 -40.5 -29 -69.5t-69.5 -29t-69.5 29t-29 69.5t29 69.5t69.5 29t69.5 -29t29 -69.5zM905 -5.5q0 -40.5 -29 -69.5t-70 -29t-69.5 29t-28.5 69.5t28.5 69.5t69.5 29t70 -29t29 -69.5zM992 330l-87 156q-1 1 -5.5 6t-5.5 6.5t-4.5 5.5t-5 5.5t-5 4.5t-6 4t-6 3
t-6.5 2.5t-7 1t-8 0.5h-138v118q0 17 -11.5 28.5t-27.5 11.5h-630q-16 0 -27.5 -11.5t-11.5 -28.5v-590q0 -16 11.5 -27.5t27.5 -11.5h79q7 51 46 85.5t91.5 34.5t91.5 -34.5t47 -85.5h274q8 51 47 85.5t91.5 34.5t91.5 -34.5t46 -85.5h39q16 0 28 11.5t12 27.5v197
q0 17 -8 36.5t-15 31.5zM747 250v197h96q3 0 7 -2.5t6 -4.5l3 -3l82 -153q16 -23 16 -34h-210z" />
    <glyph glyph-name="tuichu" unicode="&#xe628;" 
d="M747 507l106 -106l50 -50v73l-106 -105l-50 -50q-14 -15 -14 -36.5t14.5 -36.5t36 -15t36.5 15l105 105l50 50q15 15 15 36.5t-15 36.5l-105 105l-50 50q-15 15 -36.5 15t-36 -15t-14.5 -36.5t14 -35.5v0zM937 435h-85h-187h-188h-88h-1q-20 0 -35.5 -15t-15.5 -36
t15.5 -36t35.5 -15h85h187h189h88v0q21 0 36 15t15 36t-15 36t-36 15v0zM701 98v-62v-41v-24q0 7 1 14q-1 -7 -3 -13q1 2 3 6.5t2 5.5q-3 -7 -7 -13l8 10q-5 -5 -10 -9l10 8q-5 -5 -12 -7q6 2 12 5q-7 -3 -13 -4q2 1 6.5 1.5t6.5 0.5h-28h-60h-186h-189h-92h-7q2 0 7 -0.5
t7 -1.5q-7 1 -13 4l6 -3t6 -2q-7 2 -13 7l10 -8q-5 4 -9 9l8 -10q-5 6 -8 13l3 -6l3 -6q-3 6 -4 13q0 -2 1 -6.5t1 -7.5q-1 4 -1 22v44v150v197v197v151v43q0 18 1 22q0 -2 -1 -7t-1 -7q1 7 4 14l-6 -12q3 6 8 12l-8 -10q4 5 9 9l-10 -8q6 5 13 8q-2 -1 -6.5 -3t-5.5 -2
q6 2 13 3l-14 -2q4 1 29 1h60h186h189h91q3 0 7 -1q-7 1 -13 2q6 -1 13 -3q-6 2 -12 5q7 -3 12 -8l-10 8q5 -4 10 -9l-8 10q4 -6 7 -12q-3 6 -5 12q2 -7 3 -14q-1 7 -1 14v-21v-37v-56q0 -21 15 -36t36 -15t36 15t15 36v75v31v8q-2 15 -3 20q-1 4 -8 20q-10 23 -38 42
q-24 16 -69 16h-54h-180h-193h-106q-29 0 -54 -14q-24 -13 -38.5 -38t-14.5 -53v-18v-114v-181v-203v-177v-106q0 -30 5 -44q10 -31 31 -47q15 -12 23 -16q15 -6 19 -7q5 -1 22 -3q2 -1 11 -1h117h197h173h47h8q3 0 7 1q15 1 21 3q3 1 20 8q22 9 41 38q6 8 9.5 17.5t5 22.5
t2 19t0 23t-0.5 20v73v0q0 21 -15 36t-36 15t-36 -15t-15 -36v0z" />
    <glyph glyph-name="quyu" unicode="&#xe644;" 
d="M512 832q-91 0 -174 -35.5t-143 -95.5t-95.5 -143t-35.5 -174t35.5 -174t95.5 -143t143 -95.5t174 -35.5t174 35.5t143 95.5t95.5 143t35.5 174t-35.5 174t-95.5 143t-143 95.5t-174 35.5v0zM512 -5q-93 0 -176 43l-4 3q-25 11 -50 42t-27 45q-5 43 11 56q22 18 60 84
q8 11 6 20t-6 14.5t-14 10.5t-17.5 7.5t-17 5.5t-13.5 4q-4 2 -33.5 27t-50.5 27q-15 1 -21 -5.5t-7 -16.5t-5 -13q-8 -7 -12.5 -6t-9.5 9q-1 16 -1 32q0 96 44 180l19 14h15q1 0 3.5 -3t2 -8t-5.5 -9q-10 -9 -11 -24t17 -15q61 4 65 33q1 8 1.5 16.5t0.5 11t2 5.5t7 5
q10 4 16.5 -1.5t4.5 -17.5q-3 -14 1 -27.5t16 -15.5q7 -2 13 -11t15 -6t11.5 23.5t8.5 27.5q11 12 15 20t4 21q0 32 30 46q15 8 38.5 2t29.5 -22q4 -9 12.5 -20.5t12.5 -18t0 -10.5q-3 -2 -17.5 -11t-18.5 -13q-2 -3 -6 -6.5t-11.5 -9.5t-13.5 -12q-10 -9 -16.5 -18.5
t-6 -22.5t12.5 -22q23 -18 36.5 -25t32.5 -7q10 0 21 -4t17.5 -8t17.5 -12t13 -10q17 -11 28 -30q3 -4 4.5 -22.5t7.5 -27.5q9 -17 9 -71q0 -11 11 -62q2 -9 0.5 -21t1 -23t11.5 -12q15 -1 24.5 9t26.5 42q9 17 16.5 26.5t14.5 15.5t11 12q16 20 19 48q1 6 11.5 19.5
t10.5 31.5q0 24 -0.5 30.5t-6.5 19.5q-3 6 -8 12.5t-7 11t0 12.5q1 3 1.5 7.5t0.5 6t2 4.5t6.5 5.5t12.5 6.5l17.5 7.5t15.5 7t10.5 7.5t8.5 11q4 11 6 30.5t3 23.5q3 10 5.5 12t16.5 -1q36 -78 36 -164q0 -105 -52 -194.5t-141.5 -142t-194.5 -52.5v0zM512 -5z" />
    <glyph glyph-name="tuichu1" unicode="&#xe629;" 
d="M527 480q14 0 23 9.5t9 22.5v256q0 13 -9 22.5t-23 9.5q-13 0 -22 -9.5t-9 -22.5v-256q0 -13 9 -22.5t22 -9.5zM885 465.5q-11 43.5 -31.5 82t-49 72t-65.5 59.5q-24 -1 -37.5 -9t-16 -20.5t-1 -23.5t6.5 -21q57 -40 90.5 -102t33.5 -135q0 -119 -84 -203t-203 -84
t-203 84t-84 203q0 70 31 130.5t84 100.5q5 10 5.5 21.5t-2.5 24t-16 20.5t-35 8q-34 -26 -62 -59t-47 -71t-29.5 -80t-10.5 -85q0 -77 29 -144t79 -117t117 -79t143 -29q77 0 144 29t116.5 79t79 117t29.5 144q0 44 -11 87.5z" />
    <glyph glyph-name="goumai" unicode="&#xe62a;" 
d="M64 759h225l150 -449h487v-75h-562l-150 449h-150v75v0zM64 759zM514 163q32 0 54.5 -23t22.5 -55t-22.5 -54.5t-54.5 -22.5t-55 22.5t-23 54.5t23 55t55 23v0zM514 163zM813 163q32 0 55 -23t23 -55t-23 -54.5t-55 -22.5t-54.5 22.5t-22.5 54.5t22.5 55t54.5 23v0z
M813 163zM932 608l-156 1v75h187l-31 -76v0zM589 460h149v-75h-149v75v0zM589 572h149v-75h-149v75v0zM589 684h149v-75h-149v75v0zM446 460h105v-75h-71l-34 75v0zM404 572h147v-75l-114 3l-33 72v0zM364 684h187v-75l-155 -1l-32 76v0zM889 497l-113 2v73h148l-35 -75v0z
M847 384l-71 1v75h105l-34 -76v0zM847 384z" />
    <glyph glyph-name="xinxi" unicode="&#xe634;" 
d="M860 644h-665q-22 0 -37.5 -15t-15.5 -36v-494q0 -20 15.5 -35t37.5 -15h665q22 0 37.5 15t15.5 35v494q0 21 -15.5 36t-37.5 15v0zM824 593l-287 -277q-7 -7 -9.5 -7t-9.5 7l-287 277h593v0zM860 124l-179 173q-8 7 -18.5 7t-18.5 -7.5t-8 -18t8 -17.5l167 -162h-564
l167 162q8 7 8 17.5t-7.5 18t-18.5 7.5t-19 -7l-182 -176v435l286 -275q23 -23 55 -23q8 0 13.5 2t7.5 3.5t8.5 8t8.5 9.5l286 275v-432v0z" />
    <glyph glyph-name="guanzhuweixin" unicode="&#xe62b;" 
d="M251 520.5q0 -13.5 9.5 -23t23 -9.5t23 9.5t9.5 23t-9.5 23t-23 9.5t-23 -9.5t-9.5 -23zM463 520.5q0 -13.5 9.5 -23t23 -9.5t23 9.5t9.5 23t-9.5 23t-23 9.5t-23 -9.5t-9.5 -23zM389 246q-54 0 -105 21q-5 2 -11 0l-115 -52l28 114q2 7 -2 12q-46 58 -46 129
q0 92 73.5 157.5t177.5 65.5q85 0 151.5 -45t89.5 -115h76q-24 99 -112.5 165t-204.5 66q-88 0 -162.5 -39.5t-117.5 -106.5t-43 -146q0 -89 55 -162l-39 -157q-2 -10 6 -17q4 -4 10 -4q4 0 7 2l157 71q61 -24 127 -24q22 0 48 3l-17 64q-17 -2 -31 -2zM912 151
q45 60 45 133q0 98 -77.5 167.5t-186.5 69.5t-186.5 -69.5t-77.5 -168t77.5 -168t186.5 -69.5q54 0 104 19l128 -57q3 -1 5 -1q5 0 9 3q6 5 4 13zM855 169l22 -91l-92 42q-4 2 -8 0q-40 -17 -84 -17q-83 0 -141.5 52.5t-58.5 126t58.5 125.5t141.5 52t141.5 -52t58.5 -126
q0 -56 -36 -102q-4 -4 -2 -10zM775 350q-11 0 -19 -8t-8 -19t8 -18.5t19 -7.5t18.5 7.5t7.5 18.5t-7.5 19t-18.5 8zM611.5 350q-10.5 0 -18.5 -8t-8 -19t8 -18.5t18.5 -7.5t18.5 7.5t8 18.5t-8 19t-18.5 8z" />
    <glyph glyph-name="dianhua02" unicode="&#xe60b;" 
d="M770 -128h-18l-124 30q-48 9 -77 47l-454 507q-13 14 -25 37.5t-16 45.5l-18 77q-5 13 3.5 25t25.5 16q14 0 25 -8.5t11 -20.5l18 -77l23 -47l455 -508q23 -24 41 -24l124 -29q24 0 29 12l113 112v6l-101 112q-6 6 -12 0l-29 -18q-17 -13 -41 -21t-42 -8h-17
q-22 -5 -48.5 6t-40.5 29l-254 289q-39 39 -29 95l6 17q10 42 41 83l24 24v12l-124 129h-6l-101 -70q-8 -10 -23 -8.5t-24 13.5q-8 10 -5.5 24t11.5 24l100 76q23 18 53 14.5t48 -25.5l124 -136q17 -22 17 -50t-17 -51l-30 -29q-6 -6 -23 -41v-24q0 -24 11 -35l266 -301
q4 -5 14.5 -8.5t15.5 -3.5h17q18 0 53 17l30 18q22 18 52 14.5t48 -26.5l101 -112q18 -21 16.5 -49.5t-22.5 -50.5l-112 -112q-5 -2 -23.5 -7t-32.5 -8t-27 -3v0zM770 -128zM652 380h-6q-13 4 -21.5 15.5t-8.5 25.5q9 40 -13.5 74.5t-62.5 43.5q-18 0 -26 11t-4 24
q5 18 16.5 26t24.5 4q68 -13 108.5 -71t27.5 -124q-10 -29 -35 -29v0zM652 380zM782 421h-6q-13 4 -21.5 16t-8.5 25q13 66 -31.5 124t-115.5 71q-14 0 -21 11t-3 24.5t16 21.5t25 8q102 -18 160.5 -98t40.5 -173q-10 -30 -35 -30v0zM782 421zM906 462h-6q-13 5 -21.5 16.5
t-8.5 25.5q18 93 -43.5 173t-162.5 98q-13 5 -21.5 16.5t-8.5 24.5q4 14 16 22t25 8q84 -14 149.5 -66.5t95.5 -128t15 -153.5q0 -36 -29 -36v0zM906 462z" />
    <glyph glyph-name="dailixinxi" unicode="&#xe645;" 
d="M384 160q0 88 38 160q-117 -8 -213.5 -69t-152.5 -161t-56 -218h534q-68 49 -109 125t-41 163zM448 384h16q79 93 198 118q42 60 42 138q0 106 -75 181t-181 75t-181 -75t-75 -181t75 -181t181 -75zM736 448q-120 0 -204 -84t-84 -204t84 -204t204 -84t204 84t84 204
t-84 204t-204 84zM736 -64q-94 0 -159 65t-65 159t65 159t159 65t159 -65t65 -159t-65 -159t-159 -65zM736 192q-14 0 -23 -9t-9 -23v-96q0 -14 9 -23t23 -9t23 9t9 23v96q0 14 -9 23t-23 9zM736 288q-14 0 -23 -9t-9 -23t9 -23t23 -9t23 9t9 23t-9 23t-23 9z" />
    <glyph glyph-name="xiaoshouliang" unicode="&#xe635;" 
d="M788 -56q-50 -13 -97.5 1t-79 45.5t-45.5 79t0 96.5q12 45 45.5 79t78.5 46q50 13 97 -0.5t79 -45.5t45.5 -79t0.5 -97q-12 -45 -45.5 -79t-78.5 -46zM764 245q-68 13 -116.5 -35.5t-35.5 -117.5q7 -38 35 -66t66 -35q69 -14 117.5 35t35.5 117q-7 38 -35.5 66t-66.5 36z
M822 194q-6 6 -12 0l-95 -96q-6 -6 -12 0l-35 35q-6 6 -12 0l-22 -21q-6 -6 0 -12l55 -55q6 -6 14 -6h10q9 0 15 6l115 116q7 6 0 12l-21 21v0zM822 194zM655.5 403q-15.5 0 -26.5 -11t-11 -26.5t11 -26t26.5 -10.5t26.5 10.5t11 26t-11 26.5t-26.5 11zM511 403q-3 0 -7 -1
h-170q-3 1 -6 1q-16 0 -26.5 -11t-10.5 -26.5t10.5 -26t26.5 -10.5h5h173h5q15 0 26 10.5t11 26t-11 26.5t-26 11zM655 560q-3 0 -6 -1h-315q-3 1 -6 1q-16 0 -26.5 -11t-10.5 -26.5t10.5 -26.5t26.5 -11q2 0 5 1h318q2 -1 4 -1q16 0 27 11t11 26.5t-11 26.5t-27 11zM265 48
h-3q-25 0 -43 18t-18 43q0 3 -1 5v576q1 2 1 5q0 25 18 43t43 18h0.5h0.5h449v0h1q25 0 43 -18t18 -43v-293h74v285v0v8q0 56 -39.5 95.5t-95.5 39.5h-2h-447h-2q-56 0 -95.5 -39.5t-39.5 -95.5v-2v0v-583v0v-0.5v-0.5q0 -56 39.5 -95.5t95.5 -39.5h3h240v74h-240z" />
    <glyph glyph-name="gengduok3" unicode="&#xe60c;" 
d="M64 832h384v-384h-384v384zM576 832h384v-384h-384v384zM64 320h384v-384h-384v384zM960 0q0 -27 -18.5 -45.5t-45.5 -18.5h-256q-27 0 -45.5 18.5t-18.5 45.5v256q0 27 18.5 45.5t45.5 18.5h256q27 0 45.5 -18.5t18.5 -45.5v-256zM899 227q0 13 -9.5 22.5t-22.5 9.5
h-198q-13 0 -22.5 -9.5t-9.5 -22.5v-198q0 -13 9.5 -22.5t22.5 -9.5h198q13 0 22.5 9.5t9.5 22.5v198z" />
    <glyph glyph-name="kucunguanli" unicode="&#xe646;" 
d="M896 554l-384 270q-4 4 -10 6q-9 5 -19 2.5t-17 -11.5l-380 -268q-9 -7 -10 -18.5t6 -22t18.5 -13t20.5 3.5l26 19v-443q0 -12 9 -21t21.5 -9t21 9t8.5 21v485l284 200l289 -203v-482q0 -12 9 -21t21.5 -9t21.5 9t9 21v439l20 -14q9 -6 20.5 -3.5t18.5 13t6 22t-10 18.5
v0zM358 530h-65q-19 0 -24.5 -6t-5.5 -24v-67q0 -18 5.5 -24t24.5 -6h65q19 0 24.5 6t5.5 24v67q0 18 -5.5 24t-24.5 6v0zM358 368h-65q-19 0 -24.5 -5.5t-5.5 -24.5v-66q0 -19 5.5 -25t24.5 -6h65q19 0 24.5 6t5.5 25v66q0 19 -5.5 24.5t-24.5 5.5v0zM358 206h-65
q-19 0 -24.5 -6t-5.5 -24v-66q0 -19 5.5 -25t24.5 -6h65q19 0 24.5 6t5.5 25v66q0 18 -5.5 24t-24.5 6v0zM529 206h-65q-19 0 -24.5 -6t-5.5 -24v-66q0 -19 5.5 -25t24.5 -6h65q19 0 24.5 6t5.5 25v66q0 18 -5.5 24t-24.5 6v0zM700 206h-65q-19 0 -25 -6t-6 -24v-66
q0 -19 6 -25t25 -6h65q19 0 24.5 6t5.5 25v66q0 18 -5.5 24t-24.5 6v0zM529 368h-65q-19 0 -24.5 -5.5t-5.5 -24.5v-66q0 -19 5.5 -25t24.5 -6h65q19 0 24.5 6t5.5 25v66q0 19 -5.5 24.5t-24.5 5.5v0zM529 368z" />
    <glyph glyph-name="fahuo" unicode="&#xe60d;" 
d="M969 576l-58 52q-48 44 -113 44h-158v80q0 46 -33 79t-79 33h-416q-46 0 -79 -33t-33 -79v-720h128q0 -53 37.5 -90.5t90.5 -37.5t90.5 37.5t37.5 90.5h192h64q0 -53 37.5 -90.5t90.5 -37.5t90.5 37.5t37.5 90.5h128v419q0 75 -55 125zM926 528q34 -31 34 -77v-99h-128
v250q20 -7 36 -22zM256 -32q-26 0 -45 18.5t-19 45t19 45.5t45 19t45 -19t19 -45.5t-19 -45t-45 -18.5zM576 96h-209q-17 29 -46.5 46.5t-64.5 17.5t-64.5 -17.5t-46.5 -46.5h-81v656q0 20 14 34t34 14h416q20 0 34 -14t14 -34v-80v-576zM768 -32q-26 0 -45 18.5t-19 45
t19 45.5t45 19t45 -19t19 -45.5t-19 -45t-45 -18.5zM879 96q-17 29 -46.5 46.5t-64.5 17.5t-64.5 -17.5t-46.5 -46.5h-17v512h128v-320h192v-192h-81z" />
    <glyph glyph-name="tianjia_c" unicode="&#xe665;" 
d="M768 320v-256h-512v640h128q26 0 45 19t19 45v0q0 26 -19 45t-45 19h-128q-53 0 -90.5 -37.5t-37.5 -90.5v-640q0 -53 37.5 -90.5t90.5 -37.5h512q53 0 90.5 37.5t37.5 90.5v256q0 26 -19 45t-45 19v0q-26 0 -45 -19t-19 -45zM832 704h-64v65q0 26 -18.5 44.5t-44 18.5
t-44 -18.5t-18.5 -44.5v-65h-67q-26 0 -45 -19t-19 -45t19 -45t45 -19h67v-65q0 -26 18.5 -44.5t44 -18.5t44 18.5t18.5 44.5v65h64q26 0 45 19t19 45t-19 45t-45 19z" />
    <glyph glyph-name="chaku" unicode="&#xe647;" 
d="M63 772v-768h895v768h-895zM825 707q14 0 24.5 -10.5t10.5 -24.5t-10.5 -24t-24.5 -10t-24 10t-10 24t10 24.5t24 10.5zM538 682q0 9 6 15t15 6h150q9 0 15.5 -6t6.5 -15v-20q0 -9 -6.5 -15t-15.5 -6h-150q-9 0 -15 6t-6 15v20zM894 68h-767v508h767v-508zM235 449h312
v-61h-312v61zM235 330h224v-60h-224v60zM235 212h156v-52h-156v52zM781 168l-50 41h-1q11 24 11 51q0 51 -36.5 87.5t-88 36.5t-88 -36.5t-36.5 -88t36.5 -88t87.5 -36.5q50 0 86 34l48 -39q12 -9 21 2l12 15q10 12 -2 21zM616.5 175q-35.5 0 -60.5 24.5t-25 60t25 60.5
t60.5 25t60.5 -25t25 -60.5t-25 -60t-60.5 -24.5z" />
    <glyph glyph-name="wenhao" unicode="&#xe62c;" 
d="M469 128h86v85h-86v-85zM512 811q-116 0 -214 -57.5t-155.5 -155.5t-57.5 -214t57.5 -214t155.5 -155.5t214 -57.5t214 57.5t155.5 155.5t57.5 214t-57.5 214t-155.5 155.5t-214 57.5zM512 43q-93 0 -171.5 45.5t-124 124t-45.5 171.5t45.5 171.5t124 124t171.5 45.5
t171.5 -45.5t124 -124t45.5 -171.5t-45.5 -171.5t-124 -124t-171.5 -45.5zM512 640q-71 0 -121 -50t-50 -121h86q0 36 25 61t60 25t60 -25t25 -61q0 -23 -13 -41t-32 -31.5t-37.5 -29.5t-32 -44.5t-13.5 -66.5h86q0 26 13 48t32 38.5t37.5 33t32 40.5t13.5 53q0 71 -50 121
t-121 50z" />
    <glyph glyph-name="lianxishangjia" unicode="&#xe62d;" 
d="M330 93q42 29 70 69q27 38 39 86q29 -20 39 -31q10 -12 10 -25q0 -34 -34 -80q-34 -45 -65 -45q-9 0 -24 6q-15 7 -35 20zM165 95q-65 82 -93 154q-29 72 -29 153q0 89 35 172q34 83 97 147q64 63 146 97q83 35 173 35t171 -34t146 -98q64 -64 98.5 -146.5t34.5 -171.5
t-35 -172q-34 -83 -98 -146q-64 -64 -146.5 -98.5t-170.5 -34.5q-109 0 -174 35t-65 91q0 12 4 24q5 12 15 25q9 -9 18 -14q7 -4 14 -4q10 0 30 17q21 17 41 43q16 23 28 51q12 29 12 37q0 4 -14 21t-14 34q0 23 13 60q14 39 38 89q29 58 47 81q17 23 36 30q5 2 15 3
q32 3 48 28q15 25 26 64t11 66q0 22 -7 29.5t-29 7.5q-34 0 -59 -4q-24 -6 -37 -15q-15 -11 -49 -54q-34 -44 -70 -98q-64 -102 -106 -216q-41 -114 -41 -172q0 -10 5 -23t18 -33q-18 -21 -26 -42.5t-8 -42.5q0 -71 77 -116.5t202 -45.5q97 0 189 38q91 38 161 107
q69 70 107 161t38 189t-38 187q-37 91 -107 161t-160.5 107.5t-189.5 37.5q-98 0 -188 -37.5t-160 -107.5q-69 -69 -107 -160t-38 -189q0 -85 26 -158q26 -74 77 -130q11 -12 21 -18q10 -7 19 -7q1 0 8 2q3 0 14 4zM591 568q27 34 42 81t15 100q42 -16 55 -30t13 -39
q0 -44 -21 -86t-44 -42q-8 0 -23 4q-14 4 -37 12v0z" />
    <glyph glyph-name="xiazai" unicode="&#xe65a;" 
d="M341 70l36 36l110 -110v448h50v-448l110 110l36 -36l-171 -170zM665 180v51h114q70 0 120 50t50 120q0 67 -46 116.5t-113 53.5l-50 3l-6 50q-10 84 -73.5 140.5t-148.5 56.5t-148.5 -56.5t-73.5 -140.5l-6 -50l-50 -3q-67 -4 -113 -53.5t-46 -116.5q0 -70 50 -120
t120 -50h114v-51h-114q-91 0 -156 65t-65 156q0 88 60 151q60 64 146 69l9 1l1 8q12 103 90 172t182 69t182 -69t90 -172l1 -8l9 -1q86 -5 146 -69q60 -63 60 -151q0 -91 -65 -156t-156 -65h-114z" />
    <glyph glyph-name="shaixuan" unicode="&#xe65b;" horiz-adv-x="1163" 
d="M1135 149h-332q-12 0 -20 8t-8 19.5t8 19.5t20 8h332q11 0 19 -8t8 -19.5t-8 -19.5t-19 -8zM1135 315h-332q-12 0 -20 8t-8 19.5t8 19.5t20 8h332q11 0 19 -8t8 -19.5t-8 -19.5t-19 -8zM910 705v0q-2 -2 -84 -78.5t-163.5 -152.5l-81.5 -76v-526l-221 111v415l-319 298
q-6 5 -10 9q-31 33 -31 78q0 47 33 80t80 33h715q47 0 80 -33t33 -80q0 -45 -31 -78v0zM828 835h-715q-21 0 -36.5 -15.5t-15.5 -36.5t15 -36l4 -4l1 -1l1 -1l311 -290l19 -18l3 -35l-2 -371l112 -56l1 427v35l20 18l312 289l1 2l2 1q3 2 4 4v0q15 15 15 36t-15.5 36.5
t-36.5 15.5zM803 38h332q11 0 19 -8t8 -19.5t-8 -19.5t-19 -8h-332q-12 0 -20 8t-8 19.5t8 19.5t20 8z" />
    <glyph glyph-name="xinxi1" unicode="&#xe636;" 
d="M104 82q-17 8 -27 24q-8 13 -9 50t-1 219q0 183 1 220t9 49l2 4q13 22 61 25.5t323 3.5h49h49q275 0 323 -3.5t61 -25.5l2 -4q8 -12 9 -49t1 -220t-1 -219.5t-9 -49.5q-1 -1 -2 -4q-13 -21 -61.5 -25t-323.5 -4h-49q-261 0 -328.5 1.5t-78.5 7.5zM827 149q-15 15 -109 98
l-93 83l-25 -21q-43 -36 -88 -36q-44 0 -87 36l-25 21l-99 -88q-99 -88 -109 -98q-5 -5 7 -6q23 -3 313 -3h330zM260 288q28 25 45 41t27.5 26.5t13.5 15.5t1 7q-7 5 -110 96t-106 91t-3 -198v-198l19 18q20 17 113 101zM895 469l-2 98l-107 -95q-108 -94 -110.5 -98
t107.5 -103l110 -99l2 99q1 100 0 198zM539 344q14 9 161 139l147 130l-168 2q-167 1 -334 0l-167 -2l147 -130q147 -131 161 -140q26 -17 53 1z" />
    <glyph glyph-name="chazhao" unicode="&#xe60e;" 
d="M948 -7l-207 207q91 108 91 248q0 159 -112.5 271.5t-271.5 112.5t-271.5 -112.5t-112.5 -271.5t112.5 -271.5t271.5 -112.5q140 0 248 91l207 -207q10 -11 24 -11.5t23.5 9t9 23.5t-11.5 24zM448 128q-133 0 -226.5 93.5t-93.5 226.5t93.5 226.5t226.5 93.5t226.5 -93.5
t93.5 -226.5t-93.5 -226.5t-226.5 -93.5z" />
    <glyph glyph-name="gengduosx" unicode="&#xe65d;" 
d="M409 800h-300q-18 0 -31 -13t-13 -32v-299q0 -19 13 -32t31 -13h300q19 0 32 13t13 32v299q0 19 -13 32t-32 13zM870 339h-300q-19 0 -32 -13t-13 -31v-300q0 -19 13 -32t32 -13h300q18 0 31.5 13t13.5 32v300q0 18 -13.5 31t-31.5 13zM938 685l-243 128q-15 8 -31 3
t-24 -20l-128 -242q-8 -15 -3 -31.5t20 -24.5l242 -127q15 -8 31.5 -3t24.5 20l128 242q8 15 3 31t-20 24zM409 339h-300q-18 0 -31 -13t-13 -31v-300q0 -19 13 -32t31 -13h300q19 0 32 13t13 32v300q0 18 -13 31t-32 13z" />
    <glyph glyph-name="chakan" unicode="&#xe60f;" 
d="M661 606q7 13 0 27q-9 14 -40 14h-3h-352q-21 0 -32.5 -8.5t-11.5 -19.5q0 -15 16 -23q19 -10 28 -10h355q28 0 40 20zM222 494q0 -17 16 -25q12 -6 28 -6h272l5 6q18 20 26 26l35 29h-338q-21 0 -32.5 -9t-11.5 -21zM812 519q20 -9 27 -14l25 -15v276q0 34 -23 50
t-49 16v0h-645q-28 0 -55.5 -16.5t-27.5 -49.5v-729q0 -33 27.5 -50t55.5 -17v0h645q35 0 53.5 21.5t18.5 45.5v65l-36 33l-26 -12v-87q0 -2 -2 -4q-1 -1 -1.5 -1t-2.5 0.5t-4 0.5h-645q-1 0 -5 -0.5t-7 -1t-6 1t-3 5.5v729q0 4 21 4h645q1 0 4.5 1.5t4.5 0.5t1 -6v-242z
M952 142l-109 106q26 41 26 90q0 71 -51.5 120.5t-124 49.5t-124 -49.5t-51.5 -120.5t51.5 -120.5t123.5 -49.5q63 0 111 38l107 -105q10 -10 21 0l20 21q11 10 0 20v0zM566 337q0 51 37.5 87.5t90.5 36.5t90.5 -36.5t37.5 -87.5t-37.5 -87.5t-90.5 -36.5t-90.5 36.5
t-37.5 87.5v0zM811 109z" />
    <glyph glyph-name="changjianwenti" unicode="&#xe610;" 
d="M896 896h-768q-24 0 -44 -20t-20 -44v-896q0 -24 20 -44t44 -20h589l38 64l128 192l71 90v614q4 24 -14.5 44t-43.5 20zM704 -32v198q0 10 8 18t18 8h128zM890 256h-186q-24 0 -44 -20t-20 -44v-256v0h-486q-10 0 -18 8t-8 18v844q0 10 8 18t18 8h716q10 0 18 -8t8 -18z
M678 563q0 -25 -12 -64q-4 -4 -12.5 -14t-18 -19t-21.5 -18q-25 -19 -57 -51q-1 -1 -4 -6.5t-3.5 -8.5t-2.5 -11t-2.5 -20.5t-0.5 -30.5h-90q0 48 1 58.5t6 24.5q6 19 32 58q6 5 17 13.5t16 12.5t11.5 10t11 11t8.5 10q15 11 20 18t5 21q0 22 -16.5 30t-53.5 8
q-34 0 -50 -18t-20 -65h-96q0 93 51 134q23 19 35 28t35.5 19.5t44.5 10.5q74 0 122 -38q44 -36 44 -103zM538 218q1 -3 4 -9t4.5 -8.5t2.5 -8.5t1 -13q0 -19 -12.5 -32t-38.5 -13q-13 0 -38 13q-13 13 -13 32q0 13 13 39q13 12 38 12q7 0 13 -1t8.5 -2.5t8.5 -4.5t9 -4z
" />
    <glyph glyph-name="tongjibaobiao" unicode="&#xe648;" 
d="M188 550h366v-73h-366v73v0zM188 550zM188 367h325v-73h-325v73v0zM188 367zM188 184h256v-73h-256v73v0zM188 184zM78 74v476q0 13 5.5 21t18 11t22 4t27.5 1h110q15 0 26 10.5t11 25.5v112q0 16 0.5 24.5t2.5 20t7.5 18t15.5 8.5h267q30 0 51.5 -21.5t21.5 -51.5v-287
h73v287q0 61 -43 103.5t-103 42.5h-293q-27 0 -56 -22t-83 -78l-27 -27q-5 -5 -27 -26q-55 -55 -77.5 -83.5t-22.5 -55.5v-513q0 -60 43 -103t103 -43h345v73h-345q-30 0 -51.5 21.5t-21.5 51.5v0v0v0zM78 74zM797 123l149 -149q62 62 62 149.5t-62 148.5l-149 -149v0v0z
M797 123zM923 342q-38 38 -88.5 53t-101.5 5l41 -207l149 149v0v0zM923 342zM688 320q-63 -12 -109 -58q-62 -62 -62 -149t62 -149q44 -44 104 -57q52 -11 104 3.5t91 53.5l-150 149l-40 207v0v0zM688 320z" />
    <glyph glyph-name="gouwujl" unicode="&#xe649;" 
d="M159 63q-13 0 -22.5 9.5t-9.5 22.5v706q0 13 9.5 22.5t22.5 9.5h621q13 0 22.5 -9.5t9.5 -22.5q1 -308 1 -439q29 -10 54 -26v465q0 36 -25.5 61.5t-61.5 25.5h-621q-36 0 -62 -25.5t-26 -61.5v-706q0 -36 26 -61.5t62 -25.5h316q-11 27 -16 55h-300v0zM733 716h-193
q-11 0 -19.5 -8.5t-8.5 -20t8.5 -19.5t19.5 -8h193q12 0 20 8t8 19.5t-8 20t-20 8.5zM733 466h-193q-11 0 -19.5 -8t-8.5 -19.5t8.5 -20t19.5 -8.5h193q12 0 20 8.5t8 20t-8 19.5t-20 8zM256 243q-11 0 -19.5 -8.5t-8.5 -20t8.5 -19.5t19.5 -8h169q11 0 19 8t8 19.5t-8 20
t-19 8.5h-169zM934.5 197q-18.5 42 -49 73t-72.5 49t-89 18q-48 0 -89.5 -18t-72.5 -49t-49 -73t-18 -89t18 -88.5t49 -73t72.5 -49t89.5 -17.5q47 0 89 17.5t72.5 49t49 73t18.5 88.5t-18.5 89zM724 -73q-75 0 -128.5 53t-53.5 128.5t53.5 128.5t128.5 53t128.5 -53
t53.5 -128.5t-53.5 -128.5t-128.5 -53zM828 126h-83v125q0 11 -7.5 18.5t-18 7.5t-18 -7.5t-7.5 -18.5v-151q0 -11 7.5 -18.5t18.5 -7.5h108q10 0 17.5 7.5t7.5 18.5t-7.5 18.5t-17.5 7.5zM356 540q4 2 9 2h79q12 0 12 9v29q0 5 -4 9.5t-10 4.5h-41q-23 0 -29.5 1t-2.5 8
q1 2 11 16q10 15 23 31.5t23 30.5q11 14 13 18q10 14 2 22q-3 3 -10 7.5t-13 7t-10 2.5q-2 0 -4 -1q-4 -2 -10 -11q-3 -4 -12 -17q-11 -16 -20 -30l-20 -28q-9 -13 -10 -15q-2 -4 -7 -4q-1 0 -2 1q-7 1 -9 6q-1 2 -10.5 13.5t-20.5 25.5q-12 15 -21 27q-10 13 -14 18
q-6 10 -11 10q-7 0 -10 -1q-2 -1 -8 -6q-7 -6 -13 -9q-12 -9 -3 -22q20 -24 36 -44q14 -18 25 -33q12 -15 14 -18q3 -5 -5 -5h-14h-26h-7h-14q-9 0 -15 -4.5t-4 -11.5q1 -5 1 -15v-14q0 -6 3.5 -7t8.5 -1h78q14 0 14 -6v-31q0 -3 -0.5 -4.5t-1.5 -1.5h-89h-2q-5 0 -7 -3
q-3 -5 -4 -11v-3q1 -6 1 -9q0 -16 16 -16h80q6 0 7.5 -1.5t1.5 -7.5q1 -6 0 -22v-46q0 -13 15 -13h30q10 0 10 6v73q0 12 10 12h20q8 0 18 1t20 1h15q17 0 17 12v18q0 10 -12 10h-78h-5q-7 0 -7 5q0 12 -0.5 17.5t-0.5 10.5t4 7z" />
    <glyph glyph-name="fuwudanwei" unicode="&#xe64a;" 
d="M937 653l-241 240l-611 -610l241 -240l611 610v0v0zM665 802l151 -150l-31 -30l-150 150l30 30v0v0zM574 711l90 -90l-31 -31l-90 90l31 31v0v0zM482 619l90 -90l-30 -30l-91 90l31 30v0v0zM390 528l91 -90l-31 -31l-90 90l30 31v0v0zM299 436l90 -90l-31 -30l-90 90
l31 30v0v0zM207 345l150 -150l-30 -31l-150 150l30 31v0v0zM121 -98h816v71h-816v-71v0v0z" />
    <glyph glyph-name="chazhao1" unicode="&#xe611;" 
d="M160 486.5q0 116.5 82.5 199t199 82.5t199 -82.5t82.5 -199t-82.5 -199t-199 -82.5t-199 82.5t-82.5 199zM973 31l-207 207q85 111 85 248q0 112 -55 206t-149 149t-205.5 55t-205.5 -55t-149 -149t-55 -205.5t55 -205.5t149 -149t205 -55q128 0 233 73l209 -209
q18 -19 44.5 -19t45.5 18.5t19 45t-19 45.5v0z" />
    <glyph glyph-name="ai238" unicode="&#xe612;" 
d="M161 560h176v176h-176v-176zM424 34h176v175h-176v-175zM161 34h176v175h-176v-175zM161 297h176v176h-176v-176zM424 297h176v176h-176v-176zM688 560h175v176h-175v-176zM424 560h176v176h-176v-176zM688 297h175v176h-175v-176zM688 34h175v175h-175v-175z" />
    <glyph glyph-name="fuxuankuang1" unicode="&#xe662;" 
d="M818 724q13 0 23 -10t10 -24v-612q0 -14 -10 -23.5t-23 -9.5h-612q-14 0 -24 9.5t-10 23.5v612q0 14 10 24t24 10h612zM818 767h-612q-32 0 -54.5 -22.5t-22.5 -54.5v-612q0 -31 22.5 -53.5t54.5 -22.5h612q31 0 53.5 22.5t22.5 53.5v612q0 32 -22.5 54.5t-53.5 22.5v0z
M371 409l88 -171q3 8 8.5 20.5t25 51t40.5 75t54.5 85t68 89t80 79.5t91.5 63q-1 -18 -5.5 -59t-5.5 -62.5t4 -56t18 -65.5q-46 -10 -123 -82.5t-144 -158.5t-101 -149q-69 85 -145.5 147.5t-135.5 83.5z" />
    <glyph glyph-name="guanyuwomen1" unicode="&#xe62e;" 
d="M506 827q-120 0 -220.5 -58.5t-158.5 -160t-58 -223t58 -223t158.5 -160t220.5 -58.5t221 58.5t159 160t58 223t-58 223t-159 160t-221 58.5zM506.5 -6q-104.5 0 -194 52.5t-141.5 143t-52 196t52 195.5t141.5 143t194 53t193.5 -53t141.5 -143t52.5 -195.5t-52.5 -196
t-141.5 -143t-193.5 -52.5zM564 168q-21 0 -29.5 7t-8.5 26q0 8 2.5 23.5t6.5 26.5l26 98q4 14 5.5 30t1.5 22q0 31 -21 50.5t-60 19.5q-21 0 -45 -8t-51 -19l-7 -30q7 3 19 6q11 4 21 4q22 0 29.5 -7.5t7.5 -26.5q0 -11 -3 -23q-2 -12 -6 -27l-27 -98q-3 -16 -5 -28t-2 -24
q0 -30 22 -50t61 -20q25 0 44 7q20 7 52 20l7 30l-18 -6q-13 -3 -22 -3zM546.5 650q-26.5 0 -45 -18t-18.5 -43.5t18.5 -43.5t45 -18t45.5 18t19 43.5t-19 43.5t-45.5 18z" />
    <glyph glyph-name="weibiaoti3" unicode="&#xe64b;" 
d="M782 659h-78v2q-5 28 -27.5 46.5t-51.5 18.5h-16q0 40 -28.5 68.5t-68.5 28.5t-68.5 -28.5t-28.5 -68.5h-16q-29 0 -51.5 -18.5t-27.5 -46.5v-2h-79q-23 0 -39.5 -16.5t-16.5 -40.5v-589q0 -23 16.5 -40t39.5 -17h541q23 0 39.5 17t16.5 40v589q0 24 -16.5 40.5
t-39.5 16.5zM512 774q20 0 34 -14t14 -34t-14 -34.5t-34 -14.5t-34.5 14.5t-14.5 34.5t14.5 34t34.5 14zM794 13q0 -5 -3.5 -8.5t-8.5 -3.5h-541q-5 0 -8.5 3.5t-3.5 8.5v589q0 5 3.5 8.5t8.5 3.5h79v-50h386l-1 50h77q5 0 8.5 -3.5t3.5 -8.5v-589zM732 395h-246
q-9 0 -15.5 6.5t-6.5 15.5t6.5 15.5t15.5 6.5h246q9 0 15.5 -6.5t6.5 -15.5t-6.5 -15.5t-15.5 -6.5zM395 357h-75q-10 0 -16.5 6.5t-6.5 15.5v76q0 9 6.5 15.5t16.5 6.5h75q10 0 16.5 -6.5t6.5 -15.5v-76q0 -9 -6.5 -15.5t-16.5 -6.5zM342 401h31v31h-31v-31zM732 249h-246
q-9 0 -15.5 6.5t-6.5 15.5t6.5 15.5t15.5 6.5h246q9 0 15.5 -6.5t6.5 -15.5t-6.5 -15.5t-15.5 -6.5zM395 211h-75q-10 0 -16.5 6.5t-6.5 15.5v76q0 9 6.5 15.5t16.5 6.5h75q10 0 16.5 -6.5t6.5 -15.5v-76q0 -9 -6.5 -15.5t-16.5 -6.5zM342 256h31v31h-31v-31zM732 102h-246
q-9 0 -15.5 6.5t-6.5 16t6.5 16t15.5 6.5h246q9 0 15.5 -6.5t6.5 -16t-6.5 -16t-15.5 -6.5zM395 64h-75q-10 0 -16.5 6.5t-6.5 16.5v75q0 9 6.5 15.5t16.5 6.5h75q10 0 16.5 -6.5t6.5 -15.5v-75q0 -10 -6.5 -16.5t-16.5 -6.5zM342 109h31v31h-31v-31z" />
    <glyph glyph-name="yanzhengma" unicode="&#xe637;" 
d="M191.5 607q11.5 0 19 7.5t7.5 18.5v59q0 5 4 9t10 4h552q5 0 8.5 -4t3.5 -9v-59q0 -11 7.5 -18.5t18.5 -7.5t19 7.5t8 18.5v59v0.5v0.5q0 27 -19.5 46t-45.5 19h-552q-27 0 -46.5 -19t-20.5 -46v-0.5v-0.5v-59q0 -11 7.5 -18.5t19 -7.5zM849 101v0.5v1.5v58q0 11 -8 19
t-19 8t-18.5 -8t-7.5 -19v-58v-1.5v-0.5v-1v-1q0 -6 -3.5 -9.5t-8.5 -3.5h-552q-5 0 -9 3.5t-4 9.5l-0.5 0.5t-0.5 1v1v1.5v58q0 11 -7.5 19t-19 8t-19 -8t-7.5 -19v-58v-1.5v-0.5v-1v-1q0 -28 19.5 -47.5t47.5 -19.5h552q27 0 46.5 19.5t19.5 47.5l-0.5 0.5t-0.5 1.5v0z
M199 396q0 -20 14 -34t33.5 -14t33.5 14t14 34v0q0 19 -14 33t-33.5 14t-33.5 -14t-14 -33v0zM373 396q0 -20 14 -34t33.5 -14t33.5 14t14 34v0q0 19 -14 33t-33.5 14t-33.5 -14t-14 -33v0zM547 396q0 -20 14 -34t33.5 -14t33.5 14t14 34v0q0 19 -14 33t-33.5 14t-33.5 -14
t-14 -33v0zM721 396q0 -20 14 -34t33.5 -14t33.5 14t14 34v0q0 19 -14 33t-33.5 14t-33.5 -14t-14 -33v0z" />
    <glyph glyph-name="changjianwenti1" unicode="&#xe613;" 
d="M490 662q-51 0 -79 -26.5t-30 -72.5q-1 -5 2 -8t8 -3h16q10 0 11 10q3 29 22.5 46t49.5 18v0q53 -2 55 -56q0 -26 -38 -62q-35 -31 -35 -66v-27q0 -10 10 -10h18q9 0 9 9v28q0 22 27 47q46 40 46 81q0 42 -24 67t-68 25v0zM823 409v345v23t-4 20t-11.5 19t-23 11.5
t-37.5 5.5h-520q-15 0 -25 -4.5t-15 -9.5t-7.5 -15.5t-3 -17t-0.5 -18.5v-655q0 -37 16.5 -54.5t61.5 -17.5h79.5h56h24.5l1 1q1 4 104 96.5t202 180t102 90.5v0zM389 92h-111q-16 0 -27.5 6.5t-16 13.5t-6 17t-1.5 14v6v0v607q0 13 8.5 21.5t21.5 8.5h490q9 0 15 -2.5t8 -9
t2.5 -10.5t0 -13.5t-0.5 -11.5v-307v0l-383 -340v0zM932 265l-86 83l-3 3q-12 12 -24 0l-4 -3l-66 -62l-245 -228l-4 -4v0l-2 -6l-27 -114q-2 -7 3 -12.5t13 -4.5l126 23l7 2v0l5 4l244 228l63 62l3 2q5 5 5 12.5t-5 12.5l-3 2v0zM598 -20l-65 -19v0q-6 -1 -9.5 3t-2.5 9v0
l19 60h1l223 209v0l57 -53v-1l-223 -208v0zM853 218l-57 53v0l35 33v0l57 -53v-1l-35 -32v0zM492 357zM470 356.5q0 9.5 6.5 16t15.5 6.5t15.5 -6.5t6.5 -16t-6.5 -16t-15.5 -6.5t-15.5 6.5t-6.5 16z" />
    <glyph glyph-name="xiazai1" unicode="&#xe65c;" horiz-adv-x="1046" 
d="M700 440h-138l1 400h-83v-400h-135l177 -310zM927 239v-161q0 -34 -26.5 -61t-59.5 -27h-641q-33 0 -59 27t-26 61v161h-79v-182q3 -63 52.5 -104.5t96.5 -41.5h671q51 -2 102.5 38t51.5 90v200h-83z" />
    <glyph glyph-name="dianhua-copy" unicode="&#xe614;" horiz-adv-x="1035" 
d="M753 -128q-80 0 -211 81q-125 77 -244 193l-24 24q-116 119 -193 244q-81 131 -81 211q0 78 72 175q14 18 30 36t45 39t52 21q30 0 72 -44q31 -32 67 -83q34 -49 57 -92q27 -51 27 -76q0 -33 -34 -56q-15 -10 -49 -25q-30 -13 -37 -19q6 -24 42 -77q43 -63 93 -115
q52 -50 115 -93q53 -36 77 -42q6 7 19 37q15 34 25 49q23 34 56 34q25 0 76 -27q43 -23 92 -57q51 -36 83 -67q44 -42 44 -72q0 -23 -21 -52t-39 -45t-36 -30q-97 -72 -175 -72v0zM341 189q114 -111 232 -185q117 -72 180 -72q57 0 135 59q34 24 56 50q16 18 19 29
q-5 11 -32 36t-74 58q-43 30 -81 50q-33 17 -47 19q-4 -2 -9.5 -11.5t-16.5 -34.5q-13 -31 -21 -43q-20 -31 -49 -31h-1q-38 1 -114 53q-68 46 -123 100l-1 1q-54 55 -100 123q-52 76 -53 114q-1 29 30 50q13 8 44 21q25 11 34.5 16.5t11.5 9.5q-2 14 -19 47q-20 38 -50 81
q-33 47 -58 74t-36 32q-11 -3 -29 -19q-26 -22 -50 -56q-59 -78 -59 -135q0 -63 72 -180q74 -118 185 -232zM700 406q-8 0 -14 5t-7 13q-9 48 -51 75q-42 28 -94 19q-9 -2 -16.5 3.5t-9 14.5t4 16.5t14.5 9.5q69 12 126 -26t69 -104q2 -9 -3.5 -16.5t-14.5 -9.5h-4zM834 463
q-8 0 -14.5 5t-7.5 13q-16 93 -97 146q-82 54 -181 36q-9 -1 -16.5 4t-9 14t4 16.5t14.5 9.5q116 20 212 -43q97 -64 117 -175q1 -9 -4 -16.5t-14 -9.5h-4zM1012 479q-8 0 -14.5 5.5t-7.5 13.5q-13 76 -56 140.5t-109 108.5q-67 44 -146.5 60t-160.5 1q-9 -1 -16.5 4t-9 14
t3.5 16.5t14 9.5q90 16 177.5 -2t161.5 -66q74 -50 122 -121.5t63 -157.5q1 -9 -4 -16.5t-14 -8.5q-2 -1 -4 -1z" />
    <glyph glyph-name="caigou" unicode="&#xe64c;" 
d="M331 20q-31 0 -51.5 -21.5t-20.5 -52.5q0 -30 21.5 -52t50.5 -22t50 22t21 52t-21 52t-50 22v0v0v0v0zM839 20q-31 0 -51.5 -21.5t-20.5 -52.5q0 -30 21.5 -52t50.5 -22q30 0 50.5 21.5t20.5 52.5q0 30 -21 52t-50 22v0v0v0v0zM910 56h-590q-38 0 -68 27t-36 67l-62 437
l-35 204q-2 13 -12 22t-21 9h-46q-16 0 -26 10t-10 26q0 17 10 27.5t26 10.5h46q40 0 70 -27t34 -67l36 -202l61 -437q2 -13 12 -22t21 -9h590q16 0 26 -10t10 -25q0 -18 -10 -29.5t-26 -11.5v0v0v0zM366 204q-13 0 -24 10t-11 23q-2 16 8 27t25 11l493 36q13 0 23 9.5
t12 21.5l57 329q3 19 -11 33q-7 8 -17 8h-629q-15 0 -25 10.5t-10 25.5t10 25.5t25 10.5h629q42 0 71 -34q34 -38 26 -91l-57 -330q-3 -38 -33.5 -65t-70.5 -27l-491 -36v3v0v0v0z" />
    <glyph glyph-name="shangpinxiaoshou" unicode="&#xe64d;" 
d="M712.5 10q-77.5 0 -132.5 55t-55 132.5t55 132.5t132.5 55t132.5 -55t55 -132.5t-55 -132.5t-132.5 -55zM791 151h-63v31h63v31h-31l31 94h-31l-32 -94h-31l-31 94h-31l31 -94h-31v-31h62v-31h-62v-32h62v-47h31v47h63v32zM495 197q0 -61 31.5 -113t84.5 -79
q-34 -14 -59 -18q-12 -3 -23 -7q-1 1 -2 0.5t-3.5 -1.5t-3.5 -1q-43 -9 -82 -17q-36 -7 -51 -10q-35 -8 -51.5 4.5t-16.5 36.5v581q0 24 10 38.5t29 15.5q7 0 18 1q8 1 21 2l26 2l8 -136q-1 -1 -4 -1h-5h-9q-20 -2 -19 -24q1 -8 2 -24q1 -15 1.5 -31.5t1.5 -32.5t2 -25
q1 -18 5.5 -20t20.5 -2h14h10q6 1 12.5 1.5t16.5 0.5q20 2 25.5 9t4.5 20q0 7 -1 23q-2 18 -3 35l-2 34q-1 15 -2 22q-2 12 -5 16.5t-10 3.5q-4 0 -7.5 -0.5t-7.5 -0.5h-8l-8 135q64 5 118 9q10 1 45 4q23 2 43 3q20 2 35 3t23 2q27 2 43 -9.5t20 -33.5q1 -7 7 -46
q5 -31 12 -79q-2 14 1 -1q0 -4 2 -15q9 -49 16 -85q-50 29 -108 29q-91 0 -154.5 -64t-63.5 -155zM486 674q-36 -3 -66 -4q-29 -2 -50 -4q-20 -2 -24 -2q-4 -1 -10.5 -1.5t-10.5 -2.5l-12 -4l-41 19q4 7 11 13q5 4 12 8.5t14 5.5q6 1 31 3q20 1 60 4q0 13 2.5 34t11.5 42
t26 37t46 19q34 3 55 -10.5t33 -33t16.5 -39.5t5.5 -32q13 1 35.5 2.5t32.5 2.5q27 2 30 3q10 1 22.5 -4t20.5 -12q2 -2 5.5 -6t5.5 -7q4 -4 7 -10q-110 -9 -195 -15q-46 -4 -74 -6zM554.5 746q-3.5 15 -11 29.5t-20 24t-30.5 8.5q-17 -2 -28 -13t-17 -26t-7.5 -31t-1.5 -25
q29 2 60 5q30 3 60 5q-1 8 -4.5 23zM278 -20q-24 12 -45 25q-19 10 -38 21q-14 8 -32 18q-24 14 -33 34t-5 42q2 6 9 42q6 34 16 87q11 52 21 109q15 82 20 110q10 51 17 88t8 44q4 20 14 31.5t23 5.5q7 -3 12 -8q3 -3 4 -5v-594q0 -13 1.5 -23t3.5 -16q1 -7 4 -11z" />
    <glyph glyph-name="yijian" unicode="&#xe638;" 
d="M312 667h400q12 0 20.5 8.5t8.5 20t-8.5 20t-20.5 8.5h-400q-12 0 -20.5 -8.5t-8.5 -20t8.5 -20t20.5 -8.5v0zM312 507h285q12 0 20.5 8.5t8.5 20.5t-8.5 20.5t-20.5 8.5h-285q-12 0 -20.5 -8.5t-8.5 -20.5t8.5 -20.5t20.5 -8.5v0zM964 597l-72 42v216q0 12 -8.5 20.5
t-20.5 8.5h-702q-12 0 -20.5 -8.5t-8.5 -20.5v-216l-72 -42l-57 -29v-33v-3v-620v0q0 -6 2 -11h0.5t0.5 -1l2 -4q9 -12 23 -12v0h1h960q12 0 20.5 8t8.5 20v619v3v32l-57 31v0zM892 573l67 -40l-67 -39v79v0zM208 827h608q11 0 15 -4t4 -15v-347l-323 -188l-322 188v347
q0 11 3.5 15t14.5 4v0zM132 494l-67 39l67 40v-79v0zM964 -59h-904v528l438 -254h1q0 -1 2 -1q1 -1 3 -2h1h1q2 0 3 -1h3h3q1 1 3 1h1h1q2 1 3 2q2 0 2 0.5t0.5 0.5h1.5l437 254v-528v0v0zM964 -59z" />
    <glyph glyph-name="tuandui" unicode="&#xe62f;" 
d="M648 413q39 31 61.5 77t22.5 98q0 92 -64 157t-154.5 65t-155 -65t-64.5 -157q0 -52 22.5 -98t61.5 -77q-102 -42 -165.5 -135.5t-63.5 -208.5v-74q0 -16 10.5 -26.5t25.5 -10.5h657q15 0 25.5 10.5t10.5 26.5v74q0 115 -63.5 208.5t-166.5 135.5v0v0v0v0zM368 588
q0 61 42.5 104.5t102.5 43.5t102.5 -43.5t42.5 -104.5t-42.5 -104t-102.5 -43t-102.5 43t-42.5 104v0v0v0v0zM798 33h-569v36q0 120 83.5 204.5t201 84.5t201 -84.5t83.5 -204.5v-36v0v0v0v0zM252 385l7 1q13 4 21 13.5t8 21.5q0 25 -27 35q-32 13 -51 40.5t-19 60.5
q0 35 28 64.5t66 40.5q13 36 37 66q5 7 9 13q-1 0 -4 0.5t-5 0.5q-83 0 -141.5 -54.5t-58.5 -130.5q0 -71 52 -125q-79 -37 -126 -108t-47 -155v-57q0 -16 12 -26.5t28 -10.5h72q0 29 8 65h-50v29q0 77 50.5 137t130.5 79v0v0v0v0zM850 432q53 54 53 125q0 76 -59 130.5
t-142 54.5q-1 0 -4.5 -0.5t-4.5 -0.5q4 -6 9 -13q25 -30 37 -66q40 -12 70.5 -41t30.5 -64q0 -33 -19 -60.5t-51 -40.5q-28 -10 -28 -35q0 -12 8 -21.5t21 -13.5l8 -1q80 -19 130.5 -79t50.5 -137v-29h-57q8 -36 8 -65h72q16 0 28 10.5t12 26.5v57q0 84 -47 155t-126 108v0
v0v0v0zM850 432z" />
    <glyph glyph-name="shanghuliebiao" unicode="&#xe64e;" 
d="M206 14q-11 0 -18 7.5t-7 17.5v48q0 102 56.5 185t151.5 121l15 6l-12 9q-36 28 -55.5 68t-19.5 84q0 81 57 137.5t138 56.5t138 -56.5t57 -137.5q0 -44 -19.5 -84t-55.5 -68l-12 -9l14 -6q96 -38 152.5 -121t56.5 -185v-48q0 -10 -7.5 -17.5t-17.5 -7.5h-612v0v0z
M512 365h-59l39 -39l-39 -195l59 -58l58 58l-39 195l39 39h-58v0zM89 112q-10 0 -17.5 7t-7.5 17v52q0 73 37.5 134.5t102.5 95.5l10 5l-7 8q-46 50 -46 109q0 62 46 107.5t110 48.5q-11 -15 -19 -39q-34 -12 -66 -48t-32 -69q0 -30 24 -58.5t56 -43.5q17 -6 17 -23
q0 -10 -37 -23l-6 -1q-70 -17 -110.5 -72.5t-40.5 -128.5v-39h39q-2 -5 -1 -19.5t1 -19.5h-53v0v0zM882 112q-1 5 0 19.5t0 19.5h38v39q0 73 -40.5 128.5t-109.5 72.5l-7 1q-37 13 -37 23q0 17 17 23q32 14 56 43t24 59q0 33 -31.5 69t-65.5 48q-7 22 -20 39
q64 -3 110 -48.5t46 -107.5q0 -59 -45 -109l-8 -8l10 -5q65 -34 102.5 -95t37.5 -133v-54q0 -10 -7 -17t-17 -7h-52v0h-1z" />
    <glyph glyph-name="liebiao1" unicode="&#xe64f;" 
d="M336 348q-18 4 -28.5 19.5t-6.5 33.5t19.5 28t33.5 6.5t28 -19t6.5 -34t-19 -28.5t-33.5 -6v0v0zM380 518q4 18 19.5 28t33.5 6t28.5 -19t6.5 -33.5t-19.5 -28.5t-33.5 -6.5t-28.5 19t-6.5 34.5v0v0zM459 634q4 18 19.5 28.5t33.5 6.5t28.5 -19.5t6.5 -33.5t-19.5 -28
t-33.5 -6.5t-28 19t-7 33.5v0v0zM928 469l-211 -323q-13 -20 -32 -46t-54 -65.5t-61 -53.5q-82 -46 -165 0l-330 230q-64 59 -34 167l12 40l93 -63v0q107 -75 144 -97q12 -7 31.5 -17t38.5 -20t36 -19t28 -14l11 -5q-17 -28 -20.5 -48t2.5 -40q3 -14 17 -26q10 -19 39 -29
q17 -6 38.5 3t40 26t34.5 35.5t25.5 31.5t9.5 14l281 416l-416 200l-236 -362q-6 -10 -16 -15t-20 -1q-10 5 -14 12.5t-4.5 13t3.5 15.5t6 13t7 11l242 365q30 20 57 14l409 -179q19 -8 33 -16.5t21.5 -18t12 -17t3 -19t-3 -18.5t-10 -21.5t-13.5 -22t-17 -25t-18 -26.5v0v0
zM928 469zM734 472l-117 55q-15 7 -21 22.5t1 30.5l1 1q7 15 22.5 21t30.5 -1l117 -55q15 -6 20.5 -22t-1.5 -30l-1 -2q-7 -15 -22.5 -20.5t-29.5 0.5zM649 347l-115 59q-14 8 -19 23.5t2 30.5l1 1q8 15 23.5 20t30.5 -2l114 -59q15 -8 20 -23.5t-3 -30.5l-1 -2
q-7 -14 -23 -19t-30 2zM564 221l-113 62q-15 8 -19.5 24t3.5 30l1 2q8 14 24 18.5t30 -2.5l113 -62q14 -8 19 -24t-3 -30l-1 -2q-8 -15 -24 -19.5t-30 3.5z" />
    <glyph glyph-name="bianjixs" unicode="&#xe650;" horiz-adv-x="1025" 
d="M999 555l-334 -334l-244 -91l92 243l334 334q25 25 60.5 25t61.5 -25l30 -31q25 -25 25 -60.5t-25 -60.5v0zM495 204l146 54l8 9l-90 91l-9 -8zM589 388l91 -91l228 228l-92 91zM969 647l-31 30q-13 13 -30.5 13t-29.5 -13l-31 -30l91 -92l30 30q13 13 13 31t-12 31v0z
M186 108v44h211l-16 -44h-195zM429 237h-243v43h260zM186 538h215v-43h-215v43zM401 367h-215v43h215v-43zM658 152v-44h-209l116 44h93zM551 782v-157q0 -18 13 -30.5t30 -12.5h67l-43 -44h-24q-36 0 -61 25.5t-25 61.5v193h-387q-18 0 -30.5 -12.5t-12.5 -30.5v-817
q0 -17 12.5 -30t30.5 -13h602q18 0 30.5 13t12.5 30v304l43 43v-347q0 -35 -25 -60.5t-61 -25.5h-602q-35 0 -60.5 25.5t-25.5 60.5v817q0 36 25.5 61.5t60.5 25.5h417l193 -209l-30 -30z" />
    <glyph glyph-name="baobiao" unicode="&#xe651;" 
d="M279 196h227q10 0 16.5 7.5t6.5 18t-6.5 18t-16.5 7.5h-227q-10 0 -16.5 -7.5t-6.5 -18t6.5 -18t16.5 -7.5zM768 700h-512v-273h512v273zM500 500q-9 -9 -18 0l-61 61l-62 -62q-9 -9 -18 0t0 18l68 68q4 4 11 4.5t11 -2.5l69 -69q9 -9 0 -18zM666 538q0 -6 -4 -9.5
t-9 -3.5t-9 3.5t-4 9.5v58l-98 -97q-9 -9 -18 0t0 18l98 97h-67q-6 0 -9.5 4t-3.5 9t3.5 9t9.5 4h96h1.5h0.5q13 0 13 -6v-96zM282 299h170q11 0 18.5 7.5t7.5 18t-7.5 18t-18.5 7.5h-170q-11 0 -18.5 -7.5t-7.5 -18t7.5 -18t18.5 -7.5zM283 94h356q11 0 19 7.5t8 18t-8 18
t-19 7.5h-356q-11 0 -19 -7.5t-8 -18t8 -18t19 -7.5zM819 811h-614q-14 0 -24 -10t-10 -24v-786q0 -14 10 -24t24 -10h614q14 0 24 10t10 24v786q0 14 -10 24t-24 10zM802 9h-580v725h580v-725z" />
    <glyph glyph-name="xieyi-copy" unicode="&#xe639;" 
d="M185 -59q-1 1 -2 1q-18 10 -21 59.5t-3 337.5v34q0 273 1 339.5t7 78.5q12 25 43.5 29.5t203.5 4.5h205l246 -260v-595l-30 -33l-319 -1q-319 -2 -331 5v0zM813 250l1 263h-102q-67 0 -86 1.5t-26 7.5q-13 12 -17 39t-4 109v104l-367 -3l-1 -386q-1 -387 1.5 -393.5
t300.5 -4.5l299 1zM292 170v25h445v-51h-445v26zM292 272v26h446l-3 -49l-443 -3v26zM292 405v26h205v-51h-205v25zM292 513v25h205v-51h-205v26zM711 647l-79 82l-1 -71q0 -9 -1 -24q-1 -53 6.5 -62t54.5 -8h21h78z" />
    <glyph glyph-name="dailishang" unicode="&#xe615;" 
d="M888 99q-9 4 -14 5q-2 -24 -6 -39q-2 -21 -12 -20q-8 -2 -16 18q-13 23 -19 84l92 10l-4 48l-91 -11q-1 14 -3 45q-2 27 -2 39h-49q1 -40 6 -90l-53 -6l6 -48l51 6q7 -75 24 -104q22 -39 62 -39q36 -1 47 43q4 25 7 39q1 8 2 11q-6 2 -28 9zM867 204l33 33q-22 19 -47 38
l-31 -30q31 -26 45 -41zM686 278q-21 -72 -59 -125q1 -8 5 -29q2 -21 4 -33q14 17 28 36v-129h47v207q12 27 24 58zM409 466q0 -25 17.5 -43t43 -18t43.5 18t18 43.5t-18 43t-43.5 17.5t-43 -17.5t-17.5 -43.5v0zM775 357q33 0 64 -9v308q0 39 -27.5 66.5t-66.5 27.5h-462
q-39 0 -66 -27.5t-27 -66.5v-545q0 -39 27 -66t66 -27h304l3 4q-34 53 -34 116q0 91 64 155t155 64zM497 301h-53q-7 26 -20.5 42t-27.5 19.5t-27.5 3.5t-21.5 -3l-8 -3l-28 46q20 19 27 38.5t3.5 33.5t-10.5 25t-13.5 16.5l-6.5 5.5q1 1 27 46q28 -7 47 -3.5t30.5 14
t18 21.5t8.5 20l3 9h52q5 -25 17.5 -40t27.5 -19.5t29 -5.5t23 2l10 2q-1 -1 26 -45q-20 -17 -27 -36t-3.5 -33.5t10 -26.5t13.5 -18l6 -6q0 -1 -26 -44q-26 6 -45 3t-31 -13.5t-18.5 -22t-8.5 -19.5z" />
    <glyph glyph-name="shujuzhongxin" unicode="&#xe630;" 
d="M936 164h-52v5v457q0 19 -13.5 32t-31.5 13h-628q-19 0 -32.5 -13t-13.5 -32v-457q0 -1 0.5 -2.5t0.5 -2.5h-53q-14 0 -24.5 -10t-10.5 -25t10.5 -25t24.5 -10h823q14 0 24.5 10.5t10.5 24.5t-10 24.5t-25 10.5zM475 560h99v-297h-99v297zM432 263h-99v183h99v-183z
M587 115h-125v18h125v-18zM716 263h-99v216h99v-216z" />
    <glyph glyph-name="fenlei" unicode="&#xe652;" 
d="M694 -128h-364q-90 0 -166 44t-120 120t-44 166v364q0 90 44 166t120 120t166 44h364q90 0 166 -44t120 -120t44 -166v-364q0 -90 -44 -166t-120 -120t-166 -44zM330 844q-115 0 -196.5 -81.5t-81.5 -196.5v-364q0 -115 81.5 -196.5t196.5 -81.5h364q115 0 196.5 81.5
t81.5 196.5v364q0 115 -81.5 196.5t-196.5 81.5h-364zM319.5 749q-67.5 0 -115 -47.5t-47.5 -115t47.5 -115t115.5 -47.5h163v163q0 67 -48 114.5t-115.5 47.5zM725 720q55 0 94 -39t39 -94.5t-39 -94.5t-94 -39h-134v134q0 55 39 94t95 39v0zM725 749q-68 0 -115.5 -47.5
t-47.5 -114.5v-163h163q67 0 115 47.5t48 115t-48 115t-115 47.5v0zM724.5 19q67.5 0 115.5 47.5t48 115t-48 115t-115 47.5h-163v-163q0 -67 47.5 -114.5t115 -47.5zM319.5 19q-67.5 0 -115 47.5t-47.5 115t47.5 115t115.5 47.5h163v-163q0 -67 -48 -114.5t-115.5 -47.5z
" />
    <glyph glyph-name="oa" unicode="&#xe65f;" horiz-adv-x="1061" 
d="M1023 -14h-303q-26 0 -40.5 6t-14.5 24v147h14h166h81q13 0 22 14t9 33.5t-9 33.5t-22 14h-81h-162h-18v79h13v0h1h166h81q13 0 22 14t9 33.5t-9 33.5t-22 14h-81h-162h-18v96h14h166h81q13 0 22 14t9 34t-9 34t-22 14h-81h-162h-18v127q0 21 14.5 35.5t35.5 14.5h296
q20 0 35 -14.5t15 -35.5v-735q0 -19 -8 -24.5t-30 -5.5zM544 -127l-493 101q-20 4 -34.5 22t-14.5 38l-2 709q0 21 14.5 38.5t34.5 21.5l495 92q22 4 42 -7t20 -31v-947q0 -20 -20 -30.5t-42 -6.5zM255 452q-30 40 -82.5 40t-82.5 -40q-26 -36 -26 -90.5t26 -89.5
q30 -41 82.5 -41t82.5 41q27 35 27 89.5t-27 90.5zM477 368h-2v1h1l-49 121h-36l-105 -256h40l28 71h110l28 -71h40zM409 437l40 -97h-80zM172.5 267q-35.5 0 -53.5 30q-17 26 -17 65t16 64q19 30 54.5 30t54.5 -30q16 -25 16 -64t-16 -65q-19 -30 -54.5 -30z" />
    <glyph glyph-name="icon04" unicode="&#xe63a;" 
d="M678 356q39 0 75 -17v205l-164 174h-289q-31 0 -53 -21.5t-22 -52.5v-474q0 -31 22 -53t53 -22h223q-22 39 -22 84q0 73 52 125t125 52zM592 678l130 -134h-130v134zM489 285h-208v41h208v-41zM281 426v40h389v-40h-389zM799 194v0l-22 4l-1 2q-2 7 -6 14v2l11 19
q8 12 1 19l-11 11q-4 3 -9.5 3t-9.5 -3v0l-20 -12l-1 1q-8 4 -14 6h-2l-5 22v0q-1 6 -4.5 10t-8.5 4h-16q-10 0 -13 -14l-5 -22h-2q-8 -3 -15 -7h-1l-20 12v0q-4 3 -10 3t-9 -3l-11 -11q-7 -7 0 -19l13 -21l-1 -1q-4 -7 -6 -13v-2l-22 -5v0q-13 -2 -13 -13v-16q0 -10 13 -13
l22 -5l1 -2q2 -6 5 -12l1 -2l-13 -21q-7 -11 0 -18l11 -11q3 -3 9 -3t10 3v0l20 12l1 -1q8 -4 15 -6h2l6 -22q3 -14 12 -14h16q11 0 14 13v0l5 23h1q7 2 14 6l2 1l19 -13v0q4 -3 9.5 -3t9.5 4l11 11q7 7 0 18l-12 20l1 2q3 7 5 13l1 1l22 6q13 3 13 13v15q0 12 -13 15z
M688.5 111q-25.5 0 -43 18t-17.5 43.5t17.5 43.5t43 18t43.5 -18t18 -43.5t-18 -43.5t-43.5 -18z" />
    <glyph glyph-name="operating" unicode="&#xe659;" 
d="M91 805h386v-386h-386v386zM863 735v-246h-246v246h246zM933 805h-386v-386h386v386v0zM231 156q0 -22 15.5 -37.5t37.5 -15.5t37.5 15.5t15.5 37.5v0q0 22 -15.5 37.5t-37.5 15.5t-37.5 -15.5t-15.5 -37.5zM91 349v-386h386v386h-386zM389 103q-22 0 -37 -15t-15 -37
q0 -9 3 -18h-112q3 9 3 18q0 22 -15 37t-37 15q-9 0 -18 -3v112q9 -3 18 -3q22 0 37 15t15 37q0 9 -3 18h112q-3 -9 -3 -18q0 -22 15 -37t37 -15q9 0 18 3v-112q-9 3 -18 3zM547 349v-386h386v386h-386zM617 124l155 155h41l-196 -196v41zM863 229v-41l-155 -155h-41z
M673 279l-56 -56v56h56zM807 33l56 56v-56h-56z" />
    <glyph glyph-name="zuosvg" unicode="&#xe618;" 
d="M689 886l-500 -501l500 -501l60 61l-440 440l440 441z" />
    <glyph glyph-name="yousvg" unicode="&#xe619;" 
d="M249 886l500 -501l-500 -501l-60 61l440 440l-440 441z" />
    <glyph glyph-name="shangsvg" unicode="&#xe61a;" 
d="M10 180l501 501l501 -501l-61 -60l-440 441l-441 -441z" />
    <glyph glyph-name="xiasvg" unicode="&#xe61b;" 
d="M10 621l501 -501l501 501l-61 60l-440 -441l-441 441z" />
    <glyph glyph-name="jiasvg" unicode="&#xe61c;" 
d="M48 433h956v-112h-956v112zM469 855h113v-956h-113v956z" />
    <glyph glyph-name="jiansvg" unicode="&#xe61d;" 
d="M48 433h956v-112h-956v112z" />
    <glyph glyph-name="jine" unicode="&#xe631;" 
d="M225 598h341q19 0 32.5 13.5t13.5 32.5v35q0 20 -13.5 33t-32.5 13h-341q-19 0 -32.5 -13.5t-13.5 -32.5v-35q0 -19 13.5 -32.5t32.5 -13.5v0zM507 433q24 28 54 47v34q0 19 -13.5 32.5t-32.5 13.5h-341q-19 0 -32.5 -13.5t-13.5 -32.5v-35q0 -19 13.5 -32.5t32.5 -13.5
h333zM179 349v-35q0 -19 13.5 -32.5t32.5 -13.5h221q0 68 34 127h-255q-19 0 -32.5 -13.5t-13.5 -32.5v0zM199 230q-19 0 -32.5 -13.5t-13.5 -32.5v-35q0 -19 13.5 -32.5t32.5 -13.5h308q-47 55 -58 127h-250zM701 484q-90 0 -153.5 -63t-63.5 -152.5t63.5 -153t153.5 -63.5
t153 63.5t63 153t-63 152.5t-153 63v0zM787 233q7 0 12 -5t5 -11.5t-5 -11t-12 -4.5h-61v-35q0 -9 -6.5 -15t-16 -6t-16 6t-6.5 15v35h-61q-8 0 -12.5 4.5t-4.5 11t4.5 11.5t12.5 5h61v23h-61q-8 0 -12.5 4.5t-4.5 11.5t4.5 11.5t12.5 4.5h61v18l-62 59q-6 5 -5.5 13t6 13
t14 5t13.5 -5l56 -54l56 54q6 5 14.5 5t14 -5t5.5 -13t-5 -13l-62 -59v-18h61q7 0 12 -4.5t5 -11.5t-5 -11.5t-12 -4.5h-61v-23h61z" />
    <glyph glyph-name="zhengshu" unicode="&#xe63b;" horiz-adv-x="1085" 
d="M1007 -128q-3 0 -5 2l-142 102l-143 -102q-2 -2 -5 -2q-2 0 -3 1q-5 2 -5 7v207q0 4 4 6q2 2 4 2h3l50 -17q6 -2 6 -7v-78l85 61q2 2 4.5 2t4.5 -2l83 -60v77q0 5 5 7l51 17q2 1 3 1q2 0 4 -2q4 -2 4 -6v-208q0 -5 -4 -7q-2 -1 -4 -1v0zM123 -68q-54 0 -88.5 23.5
t-34.5 70.5v752q0 49 35.5 83.5t85.5 34.5h669q49 0 84.5 -34.5t35.5 -83.5v-175q0 -7 -8 -7h-49q-8 0 -8 7v175q0 22 -16.5 38t-38.5 16h-669q-23 0 -39.5 -16t-16.5 -38v-752q0 -5 0.5 -9t2.5 -6.5t3.5 -4.5t5 -3t5.5 -2t7.5 -1h8h9.5h10h478q1 -2 -0.5 -8.5t-4 -16
t-2.5 -11.5l15 -24q0 -8 -8 -8h-472v0v0zM859 71q-92 0 -158 64.5t-66 155.5t66 155.5t158.5 64.5t158.5 -64.5t66 -155.5t-66 -155.5t-159 -64.5v0zM859 446q-65 0 -111 -45.5t-46 -109.5t46 -109.5t111.5 -45.5t112 45.5t46.5 109.5t-46.5 109.5t-112.5 45.5v0zM189 112
q-8 0 -8 7v47q0 7 8 7h405q8 0 8 -7v-47q0 -7 -8 -7h-405v0zM860 196q-41 0 -69.5 28t-28.5 67.5t28.5 67t69 27.5t69 -27.5t28.5 -67t-28.5 -67.5t-68.5 -28v0zM860 346q-24 0 -40 -16t-16 -39t16 -39t39.5 -16t39.5 16t16 39t-16 39t-39 16v0zM190 293q-9 0 -9 7v47
q0 7 9 7l389 -2q8 0 8 -8v-53q0 -7 -8 -7l-389 9v0zM189 474q-8 0 -8 7v47q0 7 8 7h405q8 0 8 -7v-47q0 -7 -8 -7h-405v0zM189 655q-8 0 -8 7v47q0 7 8 7h526q8 0 8 -7v-47q0 -7 -8 -7h-526v0z" />
    <glyph glyph-name="instructor" unicode="&#xe617;" horiz-adv-x="1163" 
d="M44 752q0 -60 42 -102t102 -42t102 42t42 102t-42 102t-102 42t-102 -42t-42 -102zM1147 712h-348v40h-92v-40h-355v-47h24v-105l-54 26h-82l-55 -64l-53 64l-116 -22l-8 -259h50l2 -53h8v-314h-10l-58 -13v-53h49l58 9v-9h64v323h36v-323h64v9l58 -9h49v53l-58 13h-10
v314h9l12 238l45 -20v-274h340v-88l-188 -212h68l127 144v-144h38v144l127 -144h69l-189 212v88h379v469h15v47h-15zM1114 231h-705v224l138 -63v87l-138 65v121h705v-434z" />
    <glyph glyph-name="caigou1" unicode="&#xe616;" 
d="M840 625q22 0 34 -6t17 -15q5 -8 5 -18q0 -9 -3 -17q-13 -40 -26 -79q-16 -45 -18 -53q-8 -20 -14 -41q-10 -32 -25.5 -44.5t-38.5 -12.5h-409l12 -71h392q38 0 38 -33q0 -16 -7.5 -27.5t-29.5 -11.5h-408q-16 0 -26 7q-11 7 -17 19q-7 11 -12 25q-4 14 -6 25q-1 3 -5 23
q-3 19 -8 46q-5 30 -11 62q-3 13 -7.5 37t-5.5 31q-16 89 -33 179h-59q-11 0 -19 6t-13 14.5t-7 17.5t-2 18q0 16 10.5 26t28.5 10h79q15 0 24 -4q10 -5 15 -12t8 -15q1 -4 2.5 -8.5t1.5 -5.5q2 -7 3 -18l3 -23q4 -23 5 -31h532v0zM709 173q15 0 29 -6q13 -5 23 -15t16 -24
q6 -13 6 -28t-6 -29q-6 -13 -16 -24q-9 -9 -23 -15t-29 -6t-28 6q-13 5 -23 15.5t-15 23.5q-6 13 -6 28.5t6 29t15 23.5q10 10 23 15q14 6 28 6v0zM386 174q15 0 28 -5t23 -16q10 -10 15.5 -23.5t5.5 -28.5t-5 -29q-6 -13 -16 -23t-23.5 -16t-27.5 -6v0q-16 0 -29 6t-23 16
t-15 23q-6 14 -6 29t6 29q5 13 15 23t23 16q13 5 28 5h1z" />
    <glyph glyph-name="caiwubaobiao" unicode="&#xe653;" 
d="M497 459.5q-8 14.5 -20.5 24.5t-28 17t-31.5 13l2 82q8 -3 13 -6q7 -5 8 -6q6 -4 12 -7q7 -4 15 -4q14 0 19.5 7t5.5 18q0 5 -4.5 12.5t-13.5 14.5t-22 14q-13 6 -32 9l1 24q0 9 -6 13.5t-11 4.5q-10 0 -16.5 -4.5t-6.5 -13.5v-21q-46 -3 -70.5 -26.5t-24.5 -61.5
q0 -20 7 -34q8 -14 21 -24t29 -17t33 -14l-3 -83q-19 6 -30 16q-6 4 -12.5 8t-14.5 5q-27 0 -27 -22q0 -12 8 -21t20 -16t27 -11.5t28 -6.5v-21q0 -10 6 -14.5t13.5 -4.5t14 4.5t6.5 14.5v18q44 3 68.5 25.5t24.5 59.5q0 20 -8 34.5zM377 529q-14 7 -22.5 15t-8.5 21
q0 15 9 24t24 11zM436.5 399q-8.5 -8 -23.5 -11l2 70q14 -7 22 -15.5t8 -20.5q0 -15 -8.5 -23zM936 671l-141 130q-9 8 -22 8h-588q-13 0 -22 -8.5t-9 -20.5v-792q0 -12 9 -20t22 -8h729q13 0 22 8t9 20v663q0 12 -9 20zM243 44v680h490v-96q0 -7 5.5 -12t13.5 -5h104v-567
h-613zM784 310q0 -17 -13 -29t-31 -12h-195q-18 0 -31 12t-13 29t13 29t31 12h195q18 0 31 -12t13 -29zM784 143.5q0 -17.5 -13 -29.5t-31 -12h-379q-18 0 -31.5 12t-13.5 29.5t13.5 29.5t31.5 12h379q18 0 31 -12t13 -29.5zM777 485.5q0 -17.5 -12 -29.5t-29 -12h-93
q-18 0 -30 12t-12 29.5t12 29.5t30 12h93q17 0 29 -12t12 -29.5z" />
    <glyph glyph-name="tiku" unicode="&#xe654;" 
d="M392 295l25 10l-43 44l-14 -34q-84 46 -185 60q-47 -50 -55 -78q5 0 15.5 -1.5t41.5 -9.5t61 -18.5t70.5 -31t75 -45.5t69 -64t57.5 -85v140q-4 7 -12 18.5t-39 41t-67 53.5zM494 56q-8 10 -21.5 26t-57 55t-88 66.5t-108 44t-123.5 3.5q-2 -7 -6 -18t-10 -34.5t-5 -35.5
v0q10 3 28 6t70 4t100.5 -7t110.5 -35.5t110 -74.5zM44 122q-7 -67 2 -94q10 6 27 13.5t69 23t103 21t121.5 -6t131.5 -45.5q-5 4 -15 11t-40 24.5t-61 32.5t-75 29t-85.5 19.5t-89 -0.5t-88.5 -28zM901 297q-3 13 -17 32t-26 32l-12 14q-66 -9 -125 -32t-95.5 -49.5
t-64 -52.5t-39.5 -41.5t-12 -17.5v-140q24 46 58.5 85t69 64t75 45.5t70.5 31t61 18.5t41.5 9.5t15.5 1.5v0zM530 56q48 47 110.5 75t111 35.5t100.5 6.5t69.5 -4t27.5 -6v0q2 27 -21 88q-60 13 -122.5 -2.5t-109.5 -46t-86 -64.5t-59.5 -57.5t-20.5 -24.5zM980 122
q-56 29 -123.5 30.5t-123.5 -16.5t-104 -41t-75.5 -41.5t-27.5 -19.5q61 34 130 46t124 5t101 -20t71.5 -24t25.5 -13q9 27 2 94zM688 537l-83 83l-183 -184l83 -83zM752 601l2 2q17 17 17 41.5t-17 41.5t-41 17t-41 -16v0l-53 -53l83 -83zM490 339l-83 83l-19 -59l43 -44z
" />
    <glyph glyph-name="guan" unicode="&#xe655;" 
d="M708 683h-392q-124 0 -211.5 -87.5t-87.5 -211.5t87.5 -211.5t211.5 -87.5h392q124 0 211.5 87.5t87.5 211.5t-87.5 211.5t-211.5 87.5v0zM322 114q-112 0 -191.5 79t-79.5 191.5t79.5 192t191.5 79.5t191.5 -79.5t79.5 -192t-79.5 -191.5t-191.5 -79v0z" />
    <glyph glyph-name="kai" unicode="&#xe656;" 
d="M708 683h-392q-124 0 -211.5 -87.5t-87.5 -211.5t87.5 -211.5t211.5 -87.5h392q124 0 211.5 87.5t87.5 211.5t-87.5 211.5t-211.5 87.5v0zM708 114q-112 0 -191.5 79t-79.5 191.5t79.5 192t192 79.5t191.5 -79.5t79 -192t-79 -191.5t-192 -79v0z" />
    <glyph glyph-name="gouwujiluliu" unicode="&#xe657;" 
d="M423 124q-12 12 -27 18t-33 6t-33 -6q-15 -7 -27 -18q-12 -12 -18 -27t-6 -33q0 -17 6 -32.5t18 -26.5t27 -18t33 -7q17 0 32.5 6.5t27.5 18.5q12 11 18 27q7 15 7 32t-6.5 33t-18.5 27zM802 122q-11 12 -27 18t-33.5 6t-33 -6t-26.5 -18q-11 -11 -18 -27
q-7 -15 -7 -32.5t7 -32.5q6 -15 18 -27q11 -11 26.5 -18t33 -7t33.5 7t27 18t18 27q7 15 7 32.5t-7 32.5q-6 16 -18 27zM954 639q-6 10 -20 17t-40 7h-622l-5 35q-3 18 -4 26l-3 21q-5 14 -5 15q-3 10 -9 18q-7 8 -17 13q-11 6 -29 6h-92q-21 0 -33.5 -12t-12.5 -30
q0 -10 2 -20q3 -11 8 -21q7 -9 16 -16t22 -7h69q19 -102 39 -205q2 -10 7 -36.5t7 -40.5q8 -42 13 -71q7 -33 10 -52q5 -25 5 -26q3 -13 8 -29q5 -15 13.5 -28.5t20.5 -21.5t30 -8h477q25 0 34 13t9 31q0 38 -44 38h-458l-14 81h478q26 0 44 14q19 15 30 51q5 16 16 47
q2 5 21 61l20 56l11 33q3 9 3.5 20t-5.5 21zM386 395h-5v0q-10 0 -17.5 6t-9.5 15l-34 175q-2 11 4.5 20.5t17.5 11.5t20 -4t11 -17l34 -175q2 -11 -4 -20.5t-17 -11.5zM529 395h-5q-10 0 -17.5 6t-9.5 15l-34 175q-2 11 4.5 20.5t17 11.5t20 -4t11.5 -17l34 -175
q2 -11 -4 -20.5t-17 -11.5zM671 395h-5q-9 0 -16.5 6t-9.5 15l-34 175q-2 11 4 20.5t17 11.5t20.5 -4t11.5 -17l34 -175q2 -11 -4.5 -20.5t-17.5 -11.5zM814 395h-5q-10 0 -17.5 6t-8.5 15l-34 175q-3 11 3.5 20.5t17.5 11.5t20 -4t12 -17l33 -175q3 -11 -3.5 -20.5
t-17.5 -11.5z" />
    <glyph glyph-name="pinpai" unicode="&#xe658;" 
d="M735 80h-446q-17 0 -29 -13.5t-12 -33t12 -32.5t29 -13h446q17 0 29 13t12 32.5t-12 33t-29 13.5zM931 599q-5 6 -12 10q-24 17 -53 17q-39 0 -66.5 -28t-27.5 -68q0 -49 39 -78q-75 -89 -106 -80q-15 5 -26.5 35.5t-17.5 74t-8 67t-3 40.5q34 6 56.5 32.5t22.5 62.5
q0 40 -27.5 68t-66.5 28t-66.5 -28t-27.5 -68q0 -27 14 -50t36 -35q-6 -16 -13.5 -32.5t-19.5 -41t-25 -40t-23 -15.5q-10 1 -23 17t-25 41t-19 41.5t-13 31.5q22 12 34.5 34.5t12.5 48.5q0 40 -27.5 68t-66.5 28t-66.5 -28t-27.5 -68q0 -31 18 -56t46 -35q8 -4 18 -4
q-1 -8 -2.5 -21.5t-7 -48.5t-12 -62t-17 -50.5t-22.5 -26.5q-16 -4 -38.5 11.5t-35.5 30t-24 29.5q40 29 40 79q0 40 -27.5 68t-66.5 28q-11 0 -23 -3q-43 -4 -60 -48q-11 -21 -11 -45q0 -32 20 -58q10 -16 27 -25q22 -13 47 -13q6 0 14 1q3 -20 10 -57t20 -93t31.5 -95.5
t37.5 -40.5h482q17 0 33.5 28.5t28.5 69.5t21.5 81.5t14.5 69.5l5 29l1 7h9q25 0 46 12q30 11 38 42q10 20 10 42q0 41 -29 69zM931 599z" />
    <glyph glyph-name="chanpin" unicode="&#xe660;" 
d="M58 807zM384 743q23 0 39 -15.5t16 -38.5v-217q0 -23 -16 -39t-39 -16h-217q-23 0 -38.5 16t-15.5 39v217q0 23 15.5 38.5t38.5 15.5h217zM384 309q23 0 39 -16t16 -38v-218q0 -23 -16 -38.5t-39 -15.5h-217q-23 0 -38.5 15.5t-15.5 38.5v218q0 22 15.5 38t38.5 16h217z
M819 309q23 0 38.5 -16t15.5 -38v-218q0 -23 -15.5 -38.5t-38.5 -15.5h-217q-23 0 -39 15.5t-16 38.5v218q0 22 16 38t39 16h217zM940 648q17 -18 17 -41.5t-17 -39.5l-162 -162q-17 -17 -40 -17t-40 17l-162 162q-16 16 -16 39.5t16 41.5l162 161q17 17 40 17t40 -17z" />
    <glyph glyph-name="huoche2" unicode="&#xe661;" 
d="M360 118q0 -36 -25 -61t-60.5 -25t-60.5 25t-25 60.5t25 60.5t60.5 25t60.5 -25t25 -60v0zM876 118q0 -36 -25 -61t-60 -25t-60 25t-25 60.5t25 60.5t60 25t60 -25t25 -60v0zM966 432l-83 110q-1 1 -5 6t-4.5 6t-4 5t-5 5t-5 4t-5.5 4t-5.5 3t-6.5 2.5t-6.5 1t-7.5 0.5
h-166q-15 0 -26 -11t-11 -26v-369q0 -15 10.5 -26t26.5 -11q6 48 43 80.5t86 32.5t86 -32.5t43 -80.5h37q15 0 26 11t11 26v185q0 15 -7 33.5t-14 29.5l-7 11v0zM736 358v147h90q3 0 6.5 -2t5.5 -4l2 -2l78 -108q14 -21 14 -31h-196zM551 727h-480q-15 0 -26 -11t-11 -26
v-517q0 -15 11 -26t26 -11h74q7 48 43.5 80.5t85.5 32.5t86 -32.5t44 -80.5h147q15 0 26 11t11 26v517q0 15 -11 26t-26 11v0zM551 727z" />
  </font>
</defs>
</svg>
